<svg xmlns="http://www.w3.org/2000/svg" width="714.906" height="701.285" viewBox="0 0 714.906 701.285">
  <g id="Women" transform="translate(-297.397 -219.255)">
    <rect id="Rectangle_15" data-name="Rectangle 15" width="1.948" transform="translate(639.855 449.034)" fill="#fff"/>
    <g id="Group_28" data-name="Group 28" transform="translate(515.074 224.543)">
      <g id="Group_21" data-name="Group 21" transform="translate(37.772 301.478)">
        <g id="Left_Leg" data-name="Left Leg" transform="translate(0 75.753)">
          <path id="Path_169" data-name="Path 169" d="M-591.215,235.352l10.916,2.587,13.676,39.425-38.888-7.174Z" transform="translate(832.597 1)" fill="#7690f3"/>
          <path id="Path_168" data-name="Path 168" d="M-599.861,282.42l8.646-47.236s-72.859-47.588-94-62.33-25.907-20.072-34.4-30.326S-736.571,122.453-747.473,30.3C-774.324,23.85-818.5,36.5-818.5,36.5s-14.4,94.621,63.547,165.12S-599.861,282.42-599.861,282.42Z" transform="translate(832.597 1)" fill="#0f1220"/>
          <path id="Path_170" data-name="Path 170" d="M-572.845,275.062l-11.873-36.915s17.7-18.011,31.539-18.5c8.521,21.374,41.758,94.929,41.758,94.929s-8.286,8.023-17.411-1.365S-565.516,277.419-572.845,275.062Z" transform="translate(832.597 1)" fill="#140e1e"/>
          <path id="Path_171" data-name="Path 171" d="M-511.421,314.419l4.28-2.825s-26.591-43.37-40.976-94.6c-1.478.459-5.123,1.309-5.294,2.416C-524.183,288.4-511.421,314.419-511.421,314.419Z" transform="translate(832.597 1)" fill="#291c3c"/>
        </g>
        <g id="Right_Leg" data-name="Right Leg" transform="matrix(0.914, -0.407, 0.407, 0.914, 76.582, 110.621)">
          <path id="Path_172" data-name="Path 172" d="M-596.07,228.6l12.392.77,3.38,39.834L-604.5,266.3Z" transform="translate(860.898 271.788) rotate(24)" fill="#7690f3"/>
          <path id="Path_173" data-name="Path 173" d="M-574.935,272.21l-3.7-39.882s12.236-9.737,26.08-10.23c8.521,21.374,41.136,92.474,41.136,92.474s-8.286,8.023-17.411-1.365S-567.605,274.567-574.935,272.21Z" transform="translate(855.723 266.2) rotate(24)" fill="#140e1e"/>
          <path id="Path_174" data-name="Path 174" d="M-513.048,314.7l5.907-3.105s-23.41-39.578-34.84-90.958c-1.478.459-10.608.389-10.779,1.5C-531.192,279.877-513.048,314.7-513.048,314.7Z" transform="translate(855.723 266.2) rotate(24)" fill="#291c3c"/>
          <path id="Path_167" data-name="Path 167" d="M-680.216-306.662c7.271,28.231-4.576,57.763,23.778,94.69s101.023,102.078,101.023,102.078l-32.937,40.521s-140.782-69.6-177.719-205.706c-5.507-22.114-5.286-54.077,1.806-66.176C-713.562-432.821-687.487-334.893-680.216-306.662Z" transform="translate(782.54 348.409)" fill="#0e111f"/>
        </g>
        <g id="Group_20" data-name="Group 20" transform="translate(11.497)">
          <path id="Path_76" data-name="Path 76" d="M818.067,1373.371H724.816c-2.628,6.984-14.961,34.979-17.609,50.845-3.014,18.069-4.385,28.791-4.385,28.791s-3.315,74.293,16.284,74.293c14.577,0,125.487-50.411,125.487-50.411s-3.69-48.01-9.221-59.667C830.882,1407.752,821.212,1382.508,818.067,1373.371Z" transform="translate(-702.821 -1373.371)" fill="#101321"/>
        </g>
      </g>
      <g id="Group_27" data-name="Group 27">
        <g id="Group_26" data-name="Group 26">
          <path id="Back_Hair" data-name="Back Hair" d="M819.249,354.127c-.014.058-.029.114-.045.172a30.729,30.729,0,0,1-1.344,3.891.387.387,0,0,1-.019.048c-.056.131-.112.261-.172.391-.042.1-.087.2-.134.3l0,0a30.027,30.027,0,0,1-16.295,15.7c-14.013,5.332-46.32,5.332-60.443,5.332s-46.428,0-60.443-5.332a30.024,30.024,0,0,1-16.295-15.7c-.023-.052-.049-.1-.072-.157a30.412,30.412,0,0,1-2.663-12.847v0a20.416,20.416,0,0,1,1.557-5.265c.056-.128.11-.255.166-.383,7.124-16.319,20.8-46.645,24.894-70.238a73.892,73.892,0,0,1,2.338-9.843c4.317-13.849,13.318-25.988,28.518-31.67.039-.015.077-.031.116-.045.2-.075.408-.149.613-.22.019-.006.036-.014.054-.019.213-.075.425-.149.64-.222s.439-.149.661-.223l.665-.215c.445-.143.894-.282,1.346-.414s.907-.263,1.365-.387c.265-.074.534-.143.8-.213s.538-.138.807-.2c.18-.045.362-.087.541-.13q.647-.154,1.3-.294l.5-.1c.176-.039.352-.074.528-.107.495-.1,1-.191,1.5-.278.17-.029.34-.058.51-.085.342-.056.685-.11,1.029-.161.418-.062.84-.118,1.261-.172.188-.023.375-.046.565-.068a60.92,60.92,0,0,1,15.92.2c.269.039.538.077.806.12.188.027.373.058.559.089.132.021.263.043.4.066.073.012.149.025.224.04.277.046.555.1.832.149q1.83.345,3.609.791c.464.114.927.236,1.385.36.228.06.457.124.685.19q.3.084.6.174.606.177,1.209.367l.22.07c.176.056.352.114.528.172q1.068.348,2.106.727c.3.11.6.22.9.335s.592.228.884.344c.135.052.27.107.4.162.338.137.671.275,1,.416q.418.177.83.36a.373.373,0,0,1,.05.021q.4.177.8.36c.28.128.559.255.836.387.168.079.338.161.5.242.081.039.162.079.242.12.163.077.325.159.485.238l.3.151q1.134.574,2.249,1.191c.087.048.174.1.261.147.12.066.242.135.362.2l.317.184.311.18c.1.06.207.122.309.184.141.083.282.166.422.251q.528.316,1.046.644l.211.135q.293.183.58.371l.029.019c.05.033.1.068.155.1l.164.11c.035.023.072.046.107.072.106.07.211.139.315.211.29.2.58.393.868.6.176.122.354.247.528.373l.1.07q.308.221.609.445c.166.122.331.244.493.369,9.125,6.977,14.173,19.731,16.21,29.086,3.9,17.93,13.431,48.813,21.589,70.149C820.022,344.232,820.426,349.365,819.249,354.127Z" transform="matrix(0.998, 0.07, -0.07, 0.998, -596.831, -275.411)" fill="#070241"/>
          <g id="Right_Arm" data-name="Right Arm" transform="translate(161.489 177.783) rotate(-42)">
            <path id="Path_77" data-name="Path 77" d="M1200.966,1011.609c-10.586.953-11.807-5.414-16.907-14.3l-14.5-107.3s.67-32.37,14.7-30.857,25.386,18.241,25.8,37.913c0,0,6.188,94.189,6.6,98.351C1216.653,995.418,1215.372,1010.309,1200.966,1011.609Z" transform="translate(-1169.556 -859.103)" fill="#7791f4"/>
            <g id="Group_22" data-name="Group 22" transform="matrix(0.956, 0.292, -0.292, 0.956, -2.723, 244.422)">
              <path id="Path_78" data-name="Path 78" d="M1289.478,1856.023c.227,7.447-4.847,8.293-5.539,7.293a51.17,51.17,0,0,0,0-12.07s-2.921-25.907,3.692-35.62c.6-.883,2.923-3.123,3.019-3.372.828-2.155,11.271-3.149,13.76,0,.523.663,8.951,29.01,9.448,33.486s.745,16.059,1.244,19.54-.755,11.911-1.586,12.742-2.312,1.37-2.809-.62.829-10.775-1.158-15.747c-.161-.239.6,5.2-.06,10.136-.21,1.4-2.9,10.293-3.845,11.329a1.792,1.792,0,0,1-2.935-.142c-.427-.786.866-5.436.668-5.425-.395.021-1.708,5.763-2.58,6.6a1.8,1.8,0,0,1-2.857-1.022c-.28-1.3,1.189-15.7,1.316-21.87.046-2.233-1.022-2.066-.981-1.758.113.82-1.454,20.638-3.28,22.465-.827.331-2.4,1.184-2.9-3.955-.21-2.17.149-4.387.395-9.7.186-4.027-.545-9.318-.439-12.549a37.421,37.421,0,0,0-.039-5.358" transform="translate(-1283.296 -1810.248)" fill="#7791f4"/>
            </g>
            <path id="Path_79" data-name="Path 79" d="M1264.737,1448.675l-27.382-.759s-15.88-85.037-14.932-98.689c-.041-11.083-.8-18.728-.2-20.344,0,0,2.5-14.05,16.068-15.026,13.157-.945,16.642,14.993,16.642,14.993.391,3.68,4.326,32.452,5.51,39.479S1264.685,1442.367,1264.737,1448.675Z" transform="matrix(0.956, 0.292, -0.292, 0.956, -764.494, -1498.549)" fill="#7791f4"/>
          </g>
          <g id="Left_Arm" data-name="Left Arm" transform="translate(27.97 129.948) rotate(39)">
            <path id="Path_80" data-name="Path 80" d="M586.66,985.616c10.586.955,11.807-5.412,16.907-14.3l14.5-107.3s-.164-32.292-14.19-30.778-25.892,18.163-26.305,37.834c0,0-6.188,94.189-6.6,98.351C570.973,969.427,572.254,984.318,586.66,985.616Z" transform="translate(-556.304 -833.19)" fill="#7791f4"/>
            <path id="Left_Hand" data-name="Left Hand" d="M79.782,18.569c.739.773,2.447,3.508,2.671,3.654,1.935,1.258.738,11.679-2.861,13.459-.757.374-30.237,2.724-34.719,2.279S29.011,35.351,25.5,35.116s-11.494-3.215-12.134-4.2-.858-2.545,1.19-2.618S24.927,31.348,30.2,30.438c.267-.107-5.208-.489-9.9-2.166-1.325-.5-9.466-4.974-10.282-6.117a1.794,1.794,0,0,1,.749-2.843c.859-.252,5.137,1.979,5.168,1.783.06-.391-5.282-2.869-5.918-3.9a1.8,1.8,0,0,1,1.593-2.582c1.327,0,15.106,4.427,21.119,5.834,2.175.509,2.233-.57,1.923-.594-.826-.06-19.885-5.713-21.29-7.879-.154-.878-.66-2.6,4.47-2.014,2.166.246,4.261,1.058,9.41,2.4,3.9,1.019,9.226,1.4,12.364,2.179a37.471,37.471,0,0,0,5.249,1.075c1.8.057,3.745-.173,4.268-.114a26.064,26.064,0,0,0-9.242-3.533c-7.33-1.326-7.1-6.465-5.983-6.934a51.18,51.18,0,0,0,11.807,2.51S71.657,10.08,79.782,18.569Z" transform="matrix(0.906, -0.423, 0.423, 0.906, -169.775, 180.9)" fill="#7791f4"/>
            <g id="Left_Arm-2" data-name="Left Arm" transform="translate(33.355 108.621) rotate(68)">
              <path id="Path_81" data-name="Path 81" d="M535.127,1422.459l27.382-.759s15.88-85.037,14.932-98.689c.043-11.083.8-18.728.2-20.346,0,0-2.5-14.05-16.068-15.026-13.155-.943-16.642,14.995-16.642,14.995-.391,3.68-4.326,32.452-5.51,39.479S535.178,1416.151,535.127,1422.459Z" transform="translate(-535.127 -1287.599)" fill="#7791f4"/>
            </g>
          </g>
          <path id="Body" d="M603.3,733.98c1.38-11.571,3.822-19.32,6.847-25.743,4.058-8.615,12.473-15.34,21.5-16.879,6.219-1.061,22.63-4.389,28.024-5.892,8.386-2.335,15.6-6.688,16.878-13.057a277.283,277.283,0,0,0,3.822-28.981h34.393a277.257,277.257,0,0,0,3.821,28.981c1.274,6.369,8.492,10.722,16.878,13.057,5.4,1.5,21.805,4.831,28.024,5.892,9.023,1.539,17.437,8.263,21.5,16.879,3.025,6.422,5.467,14.172,6.847,25.743,1.082,9.075.831,5.581,3.166,14.073l-31.509-5.862-21.635,18.54L673.89,781.239l-28.556-20.507-4.119-24.994L603.3,751.777v-17.8" transform="matrix(0.998, 0.07, -0.07, 0.998, -532.588, -580.634)" fill="#7791f4"/>
          <path id="Highlighter" d="M798.13,691.305c-.49-1.558-.891-3.077-1.2-4.485,2.295-.52,4.249-.99,5.554-1.354,8.386-2.335,15.6-6.688,16.878-13.057a277.265,277.265,0,0,0,3.822-28.981h34.393c.261,4.029,1.389,13.274,2.026,18.14a24.927,24.927,0,0,1-27.6,6.788c-.571,3.384-.806,4.078-1.284,7.025-1.226,7.559-7.643,13.057-11.464,15.6,3.715,1.008,8.115,2.039,14.077,3.367,4.172.929,5.433,1.933,5.217,2.779-.173.677-2.243.962-5.6.33C825.623,696.082,804.053,692.748,798.13,691.305Zm55.518,7.3v-2.558a.234.234,0,0,0-.234-.234h-7.706a.234.234,0,0,0-.234.234v2.558a.234.234,0,0,0,.234.234h7.706A.234.234,0,0,0,853.648,698.609Z" transform="matrix(0.998, 0.07, -0.07, 0.998, -675.058, -590.597)" fill="#1646b1"/>
          <g id="Shirt" transform="translate(43.808 150.236)">
            <g id="Group_24" data-name="Group 24">
              <g id="Group_23" data-name="Group 23">
                <path id="Path_82" data-name="Path 82" d="M697.532,961.19c4.931-19.259,3.149-39.463-4.146-57.956-5.015-12.712-5.873-25.581-4.238-29.2,5.309-14.651,17.745-50.663,19.445-74.019,3.713-1.06,8.067-2.015,12.205-2.973-.837,5.5-3.291,21.149-3.4,29.751-.318,25.9,16.454,38.112,38.214,37.9,21.763.213,38.534-12,38.217-37.9-.108-8.6-2.561-24.25-3.4-29.751,4.141.958,8.492,1.913,12.208,2.973,1.7,23.356,7.385,38.28,12.691,52.928l3.136,8.964c4.687,13.4-4.443,29.536-7.692,38.9a35.973,35.973,0,0,0-1.034,4.041,81.423,81.423,0,0,0,.908,36.925l21.622,80.237-150.263-.219Z" transform="translate(-682.01 -797.04)" fill="#c3b6f2"/>
              </g>
            </g>
          </g>
          <path id="Path_83" data-name="Path 83" d="M715.91,921.709c.435-8.286-6.446-7.107-6.99,1.571A204.43,204.43,0,0,1,703,957.694l.035-.054c3.157-8.272,8.038-20.417,12.325-33.172C715.578,923.461,715.764,922.534,715.91,921.709Z" transform="translate(-653.683 -734.614)" fill="#1646b1"/>
          <path id="Path_84" data-name="Path 84" d="M1172.57,921.219c-.435-8.285,6.446-7.107,6.99,1.571a204.373,204.373,0,0,0,5.955,34.542c-3.155-8.276-8.077-20.505-12.394-33.355C1172.9,922.972,1172.716,922.044,1172.57,921.219Z" transform="translate(-1000.014 -734.253)" fill="#1646b1"/>
          <path id="Nose" d="M944.144,563.409a4.437,4.437,0,0,0,2.995-1.216c.855-.6,2.909-1.636,3.565-2.085a1.236,1.236,0,0,0-.179-2.172,5.929,5.929,0,0,0-2.071-.513c-.834-.079-3.324.663-4.31.663s-2.694-.669-4.31-.663a4.675,4.675,0,0,0-2.071.513,1.236,1.236,0,0,0-.18,2.172c.656.448,2.71,1.484,3.566,2.085A4.438,4.438,0,0,0,944.144,563.409Z" transform="translate(-826.29 -470.064)" fill="#334c9b"/>
          <g id="Face" transform="matrix(0.998, 0.07, -0.07, 0.998, 81.225, 54.787)">
            <path id="Path_85" data-name="Path 85" d="M884.165,513.693a104.35,104.35,0,0,0,9.008-9.784c3.521-4.475,8.115-14.3,8.757-19.49.62-5,2.088-23.264,2.544-29.333.369-4.918.47-8.167.525-11.234H839.633c.055,3.067.156,6.316.525,11.234.456,6.069,1.924,24.328,2.544,29.333.642,5.185,5.236,15.015,8.757,19.49a104.342,104.342,0,0,0,9.008,9.784,52.764,52.764,0,0,0,4.987,4.2q-.472-.184-.927-.387a19.221,19.221,0,0,0,15.577,0q-.454.2-.927.387A52.788,52.788,0,0,0,884.165,513.693Z" transform="translate(-830.958 -443.852)" fill="#7791f4"/>
            <path id="Path_86" data-name="Path 86" d="M836.084,513.693a104.367,104.367,0,0,1-9.008-9.784c-3.521-4.475-8.115-14.3-8.757-19.49-.62-5-2.088-23.264-2.544-29.333-.369-4.918-.47-8.167-.525-11.234h-8.675c.013.174.026.35.039.53q.034.459.069.942.018.241.036.489c.085,1.153.176,2.4.273,3.706.07.934.142,1.9.216,2.889q.067.889.136,1.8.046.607.093,1.219.071.919.143,1.849t.145,1.86q.049.62.1,1.239t.1,1.234q.049.616.1,1.226t.1,1.213q.05.6.1,1.2t.1,1.175c.132,1.551.262,3.036.389,4.412q.048.516.094,1.011c.109,1.154.216,2.217.317,3.161q.117,1.093.245,2.129t.269,2.019c.188,1.311.393,2.552.622,3.733q.171.886.36,1.726c1.385,6.171,3.522,10.624,7.173,14.716,4.653,5.215,13.849,12.32,16.911,14.789q.31.249.64.5l.043.032q.314.239.646.476l.053.037q.337.239.69.475l.036.024a23.241,23.241,0,0,0,3.328,1.84l.009,0q.454.2.927.387A52.788,52.788,0,0,1,836.084,513.693Z" transform="translate(-806.575 -443.852)" fill="#3ff3fc"/>
            <path id="Path_87" data-name="Path 87" d="M1016.145,443.852c-.056,3.067-.156,6.316-.526,11.234-.456,6.069-1.924,24.328-2.544,29.333-.642,5.185-5.236,15.015-8.757,19.49a104.358,104.358,0,0,1-9.008,9.784,52.8,52.8,0,0,1-4.987,4.2q.472-.184.927-.387l.01,0a23.252,23.252,0,0,0,3.328-1.839l.037-.024q.354-.235.69-.474l.054-.038q.331-.237.646-.475l.043-.033q.33-.251.64-.5c1.052-.849,2.83-2.245,4.9-3.925q.564-.458,1.155-.942t1.2-.989q.606-.5,1.223-1.026t1.234-1.053c.617-.532,1.232-1.07,1.837-1.61.806-.72,1.594-1.442,2.341-2.154,1.122-1.068,2.154-2.112,3.026-3.09q.249-.279.489-.561.479-.563.922-1.137.222-.287.435-.578.426-.582.819-1.18t.754-1.217q.362-.618.693-1.259.5-.962.932-1.981.29-.681.555-1.391.4-1.067.74-2.209t.641-2.373q.2-.821.378-1.683c.24-1.151.456-2.36.653-3.637s.375-2.62.538-4.039q.061-.532.12-1.078c.477-4.448,1.062-11.555,1.587-18.345.063-.823.126-1.641.188-2.45q.069-.909.136-1.8.023-.3.044-.59.044-.587.087-1.163l.085-1.136c.1-1.308.189-2.553.273-3.706q.018-.247.036-.489l.069-.942c.013-.18.026-.356.039-.53Z" transform="translate(-942.104 -443.852)" fill="#f467c5"/>
          </g>
          <g id="Lips" transform="matrix(0.998, 0.07, -0.07, 0.998, 104.499, 98.334)">
            <g id="Lips-2" data-name="Lips">
              <path id="Path_88" data-name="Path 88" d="M921.727,614.811a63.4,63.4,0,0,0,7.251.3c2.124-.2,6.494-4,7.852-5.185a5.246,5.246,0,0,1-2.527-1.185c-.856-.593-3.9-3.588-5.325-4.469a5.439,5.439,0,0,0-3.844-1c-1.351.259-2.433.43-3.408.559-.974-.13-2.057-.3-3.407-.559a5.439,5.439,0,0,0-3.844,1c-1.424.881-4.469,3.876-5.325,4.469a5.248,5.248,0,0,1-2.527,1.185c1.358,1.185,5.728,4.988,7.852,5.185A63.388,63.388,0,0,0,921.727,614.811Z" transform="translate(-906.625 -603.206)" fill="#263e7a"/>
              <path id="Path_89" data-name="Path 89" d="M929.9,617.317c-1.152.1-3.934.173-5.193.222a6.142,6.142,0,0,1-3.037-.556A35.832,35.832,0,0,1,917.712,614c1.037-.766,6.02-4.5,6.942-5.058a4.634,4.634,0,0,1,2.527-.535c.543.046,1.889.189,2.724.3.836-.107,2.181-.25,2.724-.3a4.634,4.634,0,0,1,2.527.535c.922.559,5.905,4.292,6.942,5.058a35.826,35.826,0,0,1-3.963,2.988,6.141,6.141,0,0,1-3.037.556C933.839,617.49,931.057,617.416,929.9,617.317Z" transform="translate(-914.802 -607.03)" fill="#334c9b"/>
              <g id="Group_25" data-name="Group 25" transform="translate(5.401 5.455)">
                <path id="Path_90" data-name="Path 90" d="M946.125,625.9a.483.483,0,0,1-.2-.042,8.121,8.121,0,0,0-3.182-.863c-1.157-.049-4.1-.049-5.826,0h-.028c-1.728-.049-4.668-.049-5.826,0a8.121,8.121,0,0,0-3.182.863.484.484,0,0,1-.393-.884,8.956,8.956,0,0,1,3.534-.946c1.171-.05,4.133-.05,5.88,0,1.747-.049,4.709-.049,5.88,0a8.955,8.955,0,0,1,3.534.946.484.484,0,0,1-.2.926Z" transform="translate(-927.206 -623.994)" fill="#193368"/>
              </g>
              <path id="Path_91" data-name="Path 91" d="M976.752,608.736c-.856-.593-3.9-3.588-5.325-4.469a5.439,5.439,0,0,0-3.843-1c-1.35.259-2.433.43-3.407.559v1.045c.835-.107,2.181-.25,2.724-.3a4.635,4.635,0,0,1,2.527.535c.922.56,5.905,4.292,6.942,5.058a35.816,35.816,0,0,1-3.963,2.988,6.14,6.14,0,0,1-3.037.556c-1.259-.049-4.041-.124-5.193-.222v1.317a63.389,63.389,0,0,0,7.251.3c2.124-.2,6.494-4,7.852-5.185A5.247,5.247,0,0,1,976.752,608.736Z" transform="translate(-949.073 -603.206)" fill="#ce2caf"/>
            </g>
            <path id="Path_92" data-name="Path 92" d="M955.122,660.009c-.3-1.216-2.844-2.5-5-2.5s-4.7,1.285-5,2.5Z" transform="translate(-935.018 -643.258)" fill="#334c9b"/>
          </g>
          <g id="Hairs" transform="matrix(0.998, 0.07, -0.07, 0.998, 47.07, -5.288)">
            <path id="Path_93" data-name="Path 93" d="M738.89,241.317c-2.793,4.395-6.019,16.313-8.2,23.291a107.985,107.985,0,0,1,3.979-23.291c-6.336,7.406-12.769,30.32-16.332,41.976.3-11.16,7.235-32.887,13.669-45.233-9.5,9.481-18.519,31.307-22.776,45.233.4-14.915,7.2-31.6,15.912-42.565-11.119,6.687-20.233,25.742-23.383,42.219-1.139-17.334,11.68-40.012,22.594-46.566-14.37,5.334-23.14,22.911-26.4,33.479-1.605,5.191-3.837,17.249-5.123,24.063-1.311,7.888.359,28.974,3.44,39.987-4.356-8.379-5.8-19.8-6.234-26.86-2.969,14.518-7.674,35.5-8.415,44.391a24.991,24.991,0,0,0,4.354,16.1c-8.411,0-17.863-3.06-22.316-8.59-2.166-4.576-3.307-8.711-2.735-13v0a18.527,18.527,0,0,1,1.557-5.265c.056-.128.11-.255.166-.383,7.124-16.319,20.8-46.645,24.894-70.238a73.891,73.891,0,0,1,2.338-9.843c4.317-13.849,13.318-25.988,28.518-31.67.242-.089.485-.178.729-.265.019-.006.036-.014.054-.019,2.089-.729,4.178-1.356,6.288-1.876.18-.045.362-.087.541-.13q.647-.154,1.3-.294l.5-.1c.176-.039.352-.074.528-.107.5-.1,1-.193,1.5-.278.17-.029.34-.058.51-.085.342-.056.685-.11,1.029-.161.418-.062.84-.118,1.261-.172.188-.023.375-.046.565-.068a63.9,63.9,0,0,1,6.754-.422C739.968,228.532,739.925,237.228,738.89,241.317Z" transform="translate(-660.772 -224.565)" fill="#1955bf"/>
            <path id="Path_94" data-name="Path 94" d="M1043.865,354.144c-.014.058-.029.114-.045.172a26.739,26.739,0,0,1-1.344,3.891.344.344,0,0,1-.019.048c-.056.131-.112.261-.172.391-.042.1-.087.2-.134.3l0,0c-4.452,5.528-13.9,8.588-22.316,8.588a24.99,24.99,0,0,0,4.356-16.1c-.743-8.89-5.449-29.873-8.417-44.391-.429,7.064-1.876,18.481-6.232,26.86,3.079-11.013,4.75-32.1,3.441-39.987-1.288-6.814-3.518-18.872-5.123-24.063-3.267-10.568-11.891-26.713-24.66-32.49,9.5,6.327,21.987,28.243,20.85,45.577-3.151-16.477-12.054-35.57-23.173-42.256,8.711,10.963,15.3,27.688,15.7,42.6-4.257-13.926-12.665-35.059-22.167-44.54,6.435,12.346,12.763,33.38,13.061,44.54-3.563-11.655-10-34.57-16.332-41.976,1.089,4.592,2.261,10.429,3.168,16.141-1.81-4.128-3.947-9.489-5.866-13.35-.118,7.681-.46,21.79-.814,26.413-.5-5.3-1.143-27.4-1.271-32.576a130.739,130.739,0,0,1-.5-13.381,64.167,64.167,0,0,1,8.282.621c.269.039.538.077.806.12.188.027.373.058.559.089.132.021.263.043.4.066.073.012.149.025.224.04.277.046.555.1.832.149q.512.1,1.02.2c.221.045.442.093.663.14l.273.06q1.094.242,2.178.522.431.111.859.226c.228.06.457.124.685.19q.3.084.6.174.606.177,1.209.367.374.119.749.242,3.09,1.018,6.125,2.344a.372.372,0,0,1,.05.021c.267.118.534.238.8.36q.794.363,1.582.748c.263.128.524.257.786.389q1.134.574,2.249,1.191c.087.048.174.1.261.147.12.066.242.135.362.2.211.12.419.242.628.364.1.06.207.122.309.184.141.083.282.166.422.251q.528.316,1.046.644.4.25.791.507l.029.019c.106.07.213.139.319.211.035.023.072.046.106.072.106.07.211.139.315.211.29.2.58.393.868.6.176.122.354.247.528.373.238.17.474.34.708.515.166.122.331.244.493.369,9.125,6.977,14.173,19.731,16.21,29.086,3.9,17.93,13.43,48.813,21.588,70.149C1044.639,344.248,1045.043,349.381,1043.865,354.144Z" transform="translate(-885.792 -224.565)" fill="#8c076d"/>
          </g>
        </g>
        <g id="VR" transform="matrix(0.995, 0.105, -0.105, 0.995, 64.258, 29.054)">
          <path id="Path_95" data-name="Path 95" d="M734.972,414.2l7.108,3.258V382.4l-7.108,3.258a5.048,5.048,0,0,0-2.945,4.589v19.359A5.047,5.047,0,0,0,734.972,414.2Z" transform="translate(-732.027 -372.288)" fill="#4f37a0"/>
          <path id="Path_96" data-name="Path 96" d="M1168.478,414.2l-7.108,3.258V382.4l7.108,3.258a5.048,5.048,0,0,1,2.944,4.589v19.359A5.047,5.047,0,0,1,1168.478,414.2Z" transform="translate(-1048.701 -372.288)" fill="#4f37a0"/>
          <path id="Path_97" data-name="Path 97" d="M816.591,394.964c4.41,0,6.938,3.434,12.981,5.132,5.279,1.483,16.832,1.037,22.236,0,9.7-1.863,17.888-8.009,17.888-17.889V361.749a17.889,17.889,0,0,0-17.888-17.889H781.374a17.888,17.888,0,0,0-17.888,17.889v20.458c0,9.88,8.186,16.026,17.888,17.889,5.4,1.037,16.956,1.483,22.236,0C809.653,398.4,812.469,394.964,816.591,394.964Z" transform="translate(-755.231 -343.86)" fill="#d2ccff"/>
          <rect id="Rectangle_16" data-name="Rectangle 16" width="40.833" height="91.615" rx="12.035" transform="translate(107.168 5.194) rotate(90)" fill="#5965fc"/>
          <path id="Path_98" data-name="Path 98" d="M779.107,421.426l3.2,2.161V403.615l-3.2,2.161Z" transform="translate(-766.752 -387.934)" fill="#4f37a0"/>
          <path id="Path_99" data-name="Path 99" d="M1143.606,420.764l-3.2,2.161V402.953l3.2,2.161Z" transform="translate(-1033.239 -387.446)" fill="#4f37a0"/>
          <path id="Path_100" data-name="Path 100" d="M791.3,404.258a10.487,10.487,0,0,0,10.487,10.487h70.641A10.438,10.438,0,0,0,877.9,413.2c-22.549-12.7-57.516-27.984-84.068-35.638A10.443,10.443,0,0,0,791.3,384.4Z" transform="translate(-775.742 -368.719)" fill="#4d36ba"/>
          <path id="Path_101" data-name="Path 101" d="M1188.552,394.865v28.511a5.047,5.047,0,0,0,2.919-4.576V399.441A5.047,5.047,0,0,0,1188.552,394.865Z" transform="translate(-1068.75 -381.48)" fill="#ed77c0"/>
          <path id="Path_102" data-name="Path 102" d="M732.027,412.3v19.359h0V412.3Z" transform="translate(-732.027 -394.341)" fill="#4f37a0"/>
          <path id="Path_103" data-name="Path 103" d="M732.027,399.441V418.8a5.047,5.047,0,0,0,2.919,4.576V394.865A5.047,5.047,0,0,0,732.027,399.441Z" transform="translate(-732.027 -381.48)" fill="#3ff3fc"/>
          <path id="Path_104" data-name="Path 104" d="M791.829,536.792c5.4,1.037,16.956,1.483,22.236,0,6.043-1.7,8.859-5.132,12.981-5.132,4.41,0,6.938,3.434,12.981,5.132,5.279,1.483,16.832,1.037,22.236,0,5.7-1.094,10.867-3.666,14.169-7.6H777.661C780.962,533.126,786.133,535.7,791.829,536.792Z" transform="translate(-765.686 -480.556)" fill="#7563c1"/>
        </g>
      </g>
    </g>
  </g>
</svg>
