<svg width="126" height="26" viewBox="0 0 126 26" fill="none" xmlns="http://www.w3.org/2000/svg">
<path d="M40.3067 21.4692C38.9211 21.4692 37.7267 21.2512 36.7233 20.8153C35.7359 20.3638 34.8281 19.6865 34 18.7834L36.4367 16.4246C36.9781 17.0318 37.5754 17.5067 38.2283 17.8493C38.8972 18.1762 39.6696 18.3397 40.5455 18.3397C41.3418 18.3397 41.955 18.1996 42.385 17.9193C42.8309 17.6391 43.0539 17.2498 43.0539 16.7516C43.0539 16.3001 42.9105 15.9342 42.6239 15.6539C42.3372 15.3737 41.955 15.1323 41.4772 14.9299C41.0154 14.7275 40.4978 14.5329 39.9244 14.3461C39.367 14.1592 38.8096 13.949 38.2522 13.7155C37.6948 13.4664 37.1772 13.1628 36.6994 12.8047C36.2376 12.431 35.8633 11.9717 35.5767 11.4268C35.29 10.8662 35.1467 10.1656 35.1467 9.32484C35.1467 8.31281 35.3935 7.44091 35.8872 6.70913C36.3968 5.97735 37.0976 5.42463 37.9894 5.05096C38.8813 4.66171 39.9085 4.46709 41.0711 4.46709C42.2496 4.46709 43.3246 4.6695 44.2961 5.07431C45.2835 5.47912 46.0957 6.03185 46.7327 6.73248L44.2961 9.09129C43.7865 8.57749 43.2689 8.19604 42.7433 7.94692C42.2337 7.69781 41.6524 7.57325 40.9994 7.57325C40.3465 7.57325 39.8289 7.69781 39.4467 7.94692C39.0644 8.18047 38.8733 8.523 38.8733 8.97452C38.8733 9.3949 39.0167 9.73744 39.3033 10.0021C39.59 10.2512 39.9642 10.4692 40.4261 10.6561C40.9039 10.8429 41.4215 11.0297 41.9789 11.2166C42.5522 11.4034 43.1176 11.6214 43.675 11.8705C44.2324 12.1196 44.742 12.4388 45.2039 12.828C45.6816 13.2017 46.0639 13.6844 46.3505 14.276C46.6372 14.8521 46.7805 15.5683 46.7805 16.4246C46.7805 17.9972 46.2072 19.235 45.0605 20.138C43.9139 21.0255 42.3292 21.4692 40.3067 21.4692Z" fill="white"/>
<path d="M53.6146 21.4459C52.5476 21.4459 51.592 21.189 50.7479 20.6752C49.9198 20.1614 49.2589 19.4607 48.7652 18.5732C48.2874 17.6858 48.0485 16.6737 48.0485 15.5372C48.0485 14.4006 48.2874 13.3885 48.7652 12.5011C49.2589 11.6136 49.9198 10.913 50.7479 10.3992C51.592 9.88535 52.5476 9.62845 53.6146 9.62845C54.395 9.62845 55.0957 9.77636 55.7168 10.0722C56.3539 10.368 56.8714 10.7806 57.2696 11.31C57.6677 11.8238 57.8907 12.4154 57.9385 13.0849V17.9894C57.8907 18.6589 57.6677 19.2583 57.2696 19.7877C56.8874 20.3015 56.3777 20.7063 55.7407 21.0021C55.1037 21.2979 54.395 21.4459 53.6146 21.4459ZM54.3552 18.2229C55.1355 18.2229 55.7646 17.9738 56.2424 17.4756C56.7201 16.9618 56.959 16.3156 56.959 15.5372C56.959 15.0078 56.8476 14.5407 56.6246 14.1359C56.4176 13.7311 56.115 13.4197 55.7168 13.2017C55.3346 12.9682 54.8887 12.8514 54.379 12.8514C53.8694 12.8514 53.4155 12.9682 53.0174 13.2017C52.6352 13.4197 52.3246 13.7311 52.0857 14.1359C51.8628 14.5407 51.7513 15.0078 51.7513 15.5372C51.7513 16.051 51.8628 16.5103 52.0857 16.9151C52.3087 17.3199 52.6192 17.6391 53.0174 17.8726C53.4155 18.1062 53.8615 18.2229 54.3552 18.2229ZM56.8157 21.2123V18.1529L57.3651 15.397L56.8157 12.6412V9.862H60.399V21.2123H56.8157Z" fill="white"/>
<path d="M64.4536 21.2123V8.8811C64.4536 7.96249 64.6606 7.1373 65.0747 6.40552C65.5047 5.65817 66.1019 5.07431 66.8664 4.65393C67.6308 4.21798 68.5386 4 69.5897 4C70.386 4 71.0788 4.13234 71.668 4.39703C72.2732 4.64614 72.7988 4.99646 73.2447 5.44798L70.9514 7.69002C70.7921 7.53432 70.609 7.41755 70.4019 7.3397C70.2108 7.24628 69.9799 7.19958 69.7091 7.19958C69.2154 7.19958 68.8253 7.3397 68.5386 7.61996C68.2519 7.90021 68.1086 8.28167 68.1086 8.76433V21.2123H64.4536ZM61.8975 12.8981V9.862H71.453V12.8981H61.8975Z" fill="white"/>
<path d="M78.5973 21.4692C77.3391 21.4692 76.2164 21.2201 75.229 20.7219C74.2575 20.2081 73.493 19.4996 72.9356 18.5966C72.3782 17.6936 72.0995 16.6737 72.0995 15.5372C72.0995 14.4006 72.3703 13.3885 72.9117 12.5011C73.4691 11.598 74.2177 10.8896 75.1573 10.3758C76.0969 9.862 77.156 9.6051 78.3345 9.6051C79.4812 9.6051 80.4925 9.84643 81.3684 10.3291C82.2443 10.8117 82.9291 11.4812 83.4228 12.3376C83.9325 13.1939 84.1873 14.1748 84.1873 15.2803C84.1873 15.4827 84.1713 15.7006 84.1395 15.9342C84.1236 16.1522 84.0838 16.4091 84.02 16.7049L74.0106 16.7282V14.276L82.4673 14.2527L80.8906 15.2803C80.8747 14.6263 80.7712 14.0892 80.5801 13.6688C80.3889 13.2328 80.1023 12.9059 79.7201 12.6879C79.3538 12.4544 78.8999 12.3376 78.3584 12.3376C77.7851 12.3376 77.2834 12.4699 76.8534 12.7346C76.4393 12.9837 76.1128 13.3418 75.874 13.8089C75.651 14.276 75.5395 14.8443 75.5395 15.5138C75.5395 16.1833 75.659 16.7594 75.8978 17.242C76.1527 17.7091 76.503 18.075 76.949 18.3397C77.4108 18.5888 77.9523 18.7134 78.5734 18.7134C79.1467 18.7134 79.6643 18.62 80.1262 18.4331C80.588 18.2307 80.9941 17.9349 81.3445 17.5456L83.3512 19.5074C82.7778 20.1614 82.085 20.6518 81.2728 20.9788C80.4606 21.3057 79.5688 21.4692 78.5973 21.4692Z" fill="white"/>
<path d="M92.6404 21.4459C91.86 21.4459 91.1433 21.2979 90.4904 21.0021C89.8374 20.7063 89.3039 20.3015 88.8898 19.7877C88.4757 19.2583 88.2369 18.6589 88.1732 17.9894V13.2017C88.2369 12.5322 88.4757 11.925 88.8898 11.38C89.3039 10.8351 89.8374 10.4069 90.4904 10.0955C91.1433 9.78415 91.86 9.62845 92.6404 9.62845C93.7393 9.62845 94.7107 9.88535 95.5548 10.3992C96.4148 10.913 97.0837 11.6136 97.5615 12.5011C98.0552 13.3885 98.302 14.4006 98.302 15.5372C98.302 16.6737 98.0552 17.6858 97.5615 18.5732C97.0837 19.4607 96.4148 20.1614 95.5548 20.6752C94.7107 21.189 93.7393 21.4459 92.6404 21.4459ZM91.9715 18.2229C92.497 18.2229 92.9509 18.1062 93.3331 17.8726C93.7313 17.6391 94.0418 17.3199 94.2648 16.9151C94.4878 16.5103 94.5993 16.051 94.5993 15.5372C94.5993 15.0078 94.4878 14.5407 94.2648 14.1359C94.0418 13.7311 93.7313 13.4197 93.3331 13.2017C92.9509 12.9682 92.505 12.8514 91.9954 12.8514C91.4857 12.8514 91.0319 12.9682 90.6337 13.2017C90.2515 13.4197 89.9489 13.7311 89.7259 14.1359C89.503 14.5407 89.3915 15.0078 89.3915 15.5372C89.3915 16.051 89.495 16.5103 89.702 16.9151C89.925 17.3199 90.2356 17.6391 90.6337 17.8726C91.0319 18.1062 91.4778 18.2229 91.9715 18.2229ZM85.9515 26V9.862H89.6065V12.7813L89.0093 15.5372L89.5587 18.293V26H85.9515Z" fill="white"/>
<path d="M105.008 21.4459C103.941 21.4459 102.986 21.189 102.142 20.6752C101.313 20.1614 100.653 19.4607 100.159 18.5732C99.681 17.6858 99.4421 16.6737 99.4421 15.5372C99.4421 14.4006 99.681 13.3885 100.159 12.5011C100.653 11.6136 101.313 10.913 102.142 10.3992C102.986 9.88535 103.941 9.62845 105.008 9.62845C105.789 9.62845 106.489 9.77636 107.11 10.0722C107.747 10.368 108.265 10.7806 108.663 11.31C109.061 11.8238 109.284 12.4154 109.332 13.0849V17.9894C109.284 18.6589 109.061 19.2583 108.663 19.7877C108.281 20.3015 107.771 20.7063 107.134 21.0021C106.497 21.2979 105.789 21.4459 105.008 21.4459ZM105.749 18.2229C106.529 18.2229 107.158 17.9738 107.636 17.4756C108.114 16.9618 108.353 16.3156 108.353 15.5372C108.353 15.0078 108.241 14.5407 108.018 14.1359C107.811 13.7311 107.509 13.4197 107.11 13.2017C106.728 12.9682 106.282 12.8514 105.773 12.8514C105.263 12.8514 104.809 12.9682 104.411 13.2017C104.029 13.4197 103.718 13.7311 103.479 14.1359C103.256 14.5407 103.145 15.0078 103.145 15.5372C103.145 16.051 103.256 16.5103 103.479 16.9151C103.702 17.3199 104.013 17.6391 104.411 17.8726C104.809 18.1062 105.255 18.2229 105.749 18.2229ZM108.209 21.2123V18.1529L108.759 15.397L108.209 12.6412V9.862H111.793V21.2123H108.209Z" fill="white"/>
<path d="M119.311 21.4459C118.212 21.4459 117.233 21.189 116.373 20.6752C115.529 20.1614 114.86 19.4607 114.366 18.5732C113.888 17.6858 113.649 16.6737 113.649 15.5372C113.649 14.4006 113.888 13.3885 114.366 12.5011C114.86 11.6136 115.529 10.913 116.373 10.3992C117.233 9.88535 118.212 9.62845 119.311 9.62845C120.107 9.62845 120.824 9.77636 121.461 10.0722C122.114 10.368 122.648 10.7806 123.062 11.31C123.492 11.8238 123.731 12.4154 123.778 13.0849V17.8726C123.731 18.5421 123.5 19.1493 123.086 19.6943C122.671 20.2236 122.138 20.6518 121.485 20.9788C120.832 21.2902 120.107 21.4459 119.311 21.4459ZM119.956 18.2229C120.482 18.2229 120.936 18.1139 121.318 17.896C121.7 17.6624 122.003 17.3432 122.226 16.9384C122.449 16.5336 122.56 16.0665 122.56 15.5372C122.56 15.0078 122.449 14.5485 122.226 14.1592C122.019 13.7544 121.716 13.4352 121.318 13.2017C120.936 12.9682 120.49 12.8514 119.98 12.8514C119.47 12.8514 119.017 12.9682 118.618 13.2017C118.236 13.4352 117.926 13.7544 117.687 14.1592C117.464 14.564 117.352 15.0234 117.352 15.5372C117.352 16.051 117.464 16.5103 117.687 16.9151C117.91 17.3199 118.22 17.6391 118.618 17.8726C119.017 18.1062 119.462 18.2229 119.956 18.2229ZM126 21.2123H122.417V18.1529L122.966 15.397L122.345 12.6412V4.2569H126V21.2123Z" fill="white"/>
<path fill-rule="evenodd" clip-rule="evenodd" d="M0 0V26L11 18.7778V7.22222L0 0ZM2 3.70569V22.2943L9 17.6984V8.30164L2 3.70569Z" fill="white"/>
<path fill-rule="evenodd" clip-rule="evenodd" d="M24 26L24 0L13 7.22222L13 18.7778L24 26ZM22 22.2943L22 3.70568L15 8.30165L15 17.6984L22 22.2943Z" fill="#777689"/>
</svg>
