<svg xmlns="http://www.w3.org/2000/svg" xmlns:xlink="http://www.w3.org/1999/xlink" width="88.792" height="88.792" viewBox="0 0 88.792 88.792">
  <defs>
    <radialGradient id="radial-gradient" cx="0.657" cy="0.507" r="0.914" gradientUnits="objectBoundingBox">
      <stop offset="0.081" stop-color="#ffe245"/>
      <stop offset="0.996" stop-color="#e38427"/>
    </radialGradient>
    <radialGradient id="radial-gradient-2" cx="0.647" cy="0.445" r="0.907" xlink:href="#radial-gradient"/>
    <radialGradient id="radial-gradient-3" cx="0.647" cy="0.445" r="1.152" xlink:href="#radial-gradient"/>
    <radialGradient id="radial-gradient-4" cx="0.647" cy="0.445" r="0.965" xlink:href="#radial-gradient"/>
    <radialGradient id="radial-gradient-5" cx="0.5" cy="0.5" r="0.529" xlink:href="#radial-gradient"/>
    <radialGradient id="radial-gradient-6" cx="0.5" cy="0.5" r="0.656" xlink:href="#radial-gradient"/>
    <radialGradient id="radial-gradient-7" cx="0.5" cy="0.5" r="0.485" xlink:href="#radial-gradient"/>
    <radialGradient id="radial-gradient-8" cx="0.5" cy="0.5" r="0.593" xlink:href="#radial-gradient"/>
    <radialGradient id="radial-gradient-9" cx="0.5" cy="0.5" r="0.363" xlink:href="#radial-gradient"/>
    <radialGradient id="radial-gradient-10" cx="0.5" cy="0.5" r="0.358" xlink:href="#radial-gradient"/>
    <radialGradient id="radial-gradient-11" cx="0.5" cy="0.5" r="0.362" xlink:href="#radial-gradient"/>
    <radialGradient id="radial-gradient-12" cx="0.5" cy="0.5" r="0.357" xlink:href="#radial-gradient"/>
  </defs>
  <g id="Group_9" data-name="Group 9" transform="translate(-1328.031 -265.424)">
    <circle id="Ellipse_1" data-name="Ellipse 1" cx="33.859" cy="33.859" r="33.859" transform="translate(1328.031 291.882) rotate(-22.999)" fill="url(#radial-gradient)"/>
    <path id="Path_20" data-name="Path 20" d="M1372.427,275.962c.165,0,.329.01.494.012a27.153,27.153,0,1,0,32.533,41.292,33.858,33.858,0,1,1-33.027-41.3Z" opacity="0.45" fill="url(#radial-gradient-2)" style="mix-blend-mode: multiply;isolation: isolate"/>
    <g id="Group_7" data-name="Group 7">
      <path id="Path_21" data-name="Path 21" d="M1373.346,278.106a25.264,25.264,0,0,0-8.032,5.637,25.291,25.291,0,0,1,4.633-5.507c.969-.09,1.949-.141,2.941-.141C1373.042,278.1,1373.193,278.1,1373.346,278.106Z" opacity="0.45" fill="url(#radial-gradient-3)" style="mix-blend-mode: multiply;isolation: isolate"/>
      <path id="Path_22" data-name="Path 22" d="M1349.8,288.213a31.388,31.388,0,0,0,49.394,38.395,31.393,31.393,0,1,1-49.394-38.395Z" opacity="0.45" fill="url(#radial-gradient-4)" style="mix-blend-mode: multiply;isolation: isolate"/>
    </g>
    <g id="Group_8" data-name="Group 8">
      <path id="Path_23" data-name="Path 23" d="M1397.805,297.335a26.685,26.685,0,0,1-8.1,3.435,12.73,12.73,0,0,1-2.952.322,8.429,8.429,0,0,1-1.145-.089,6.031,6.031,0,0,1-1.125-.267,7.841,7.841,0,0,1-2.664-1.44,11.482,11.482,0,0,1-3.854-7.9,21.5,21.5,0,0,1,1.493-8.62c.4-1.12.782-2.034,1.055-2.67a4.594,4.594,0,0,1,.481-.979c.076.028-.463,1.518-1.16,3.774a22.06,22.06,0,0,0-1.152,8.431,10.751,10.751,0,0,0,3.722,7.234,6.885,6.885,0,0,0,2.367,1.218,5.174,5.174,0,0,0,.99.216,7.6,7.6,0,0,0,1.019.1,11.947,11.947,0,0,0,2.736-.245,26.4,26.4,0,0,0,7.915-3.133,47.527,47.527,0,0,0,4.7-3.154c.086.157.167.317.251.475A44.176,44.176,0,0,1,1397.805,297.335Z" fill="url(#radial-gradient-5)" style="mix-blend-mode: screen;isolation: isolate"/>
      <path id="Path_24" data-name="Path 24" d="M1369.535,328.309a21.362,21.362,0,0,1,3.846-3.579c.516-.372.926-.658,1.222-.827l.445-.273.449-.266,1.309-.678a33.52,33.52,0,0,1,4.894-1.837c4.138-1.273,9.834-1.933,15.4-2.931a45.54,45.54,0,0,0,7.979-2.223c.256-.1.495-.213.745-.318-.037.22-.077.439-.118.658-.141.061-.272.129-.415.188a45.1,45.1,0,0,1-8.05,2.4c-2.8.572-5.615,1-8.229,1.482a62.427,62.427,0,0,0-7.043,1.641,32.866,32.866,0,0,0-4.726,1.835l-1.249.664-.427.26-.429.257c-.286.158-.679.427-1.175.778a20.421,20.421,0,0,0-3.715,3.378,29.187,29.187,0,0,0-6.261,13.7c-.235-.06-.464-.131-.7-.2a33.929,33.929,0,0,1,2.351-7.839A26.046,26.046,0,0,1,1369.535,328.309Z" fill="url(#radial-gradient-6)" style="mix-blend-mode: screen;isolation: isolate"/>
      <path id="Path_25" data-name="Path 25" d="M1393.929,311.906l-8.521,2.5-3.922,1.147a17.482,17.482,0,0,1-3.663.813,5.574,5.574,0,0,1-3.25-.688,8.116,8.116,0,0,1-1.947-1.618,12.082,12.082,0,0,1-1.306-1.715,12.53,12.53,0,0,1-1.022-1.886,20.4,20.4,0,0,1-1.542-5.375,25.008,25.008,0,0,1-.3-3.7,36.918,36.918,0,0,1,.109-4.127,43.963,43.963,0,0,1,1.675-8.781,76.7,76.7,0,0,1,5-12.39c.17.014.341.022.509.039a79.8,79.8,0,0,0-4.813,12.547,43.612,43.612,0,0,0-1.526,8.65,36.037,36.037,0,0,0-.056,4.032,24.31,24.31,0,0,0,.334,3.583,19.461,19.461,0,0,0,1.522,5.1,11.615,11.615,0,0,0,.972,1.754,11.309,11.309,0,0,0,1.193,1.6,5.173,5.173,0,0,0,4.394,2.035,16.857,16.857,0,0,0,3.477-.737l3.936-1.1,8.555-2.381,12.487-3.44c.009.16.02.319.027.48Z" fill="url(#radial-gradient-7)" style="mix-blend-mode: screen;isolation: isolate"/>
      <path id="Path_26" data-name="Path 26" d="M1374.452,343.332c.943-2.325,1.715-3.817,1.715-3.817s.194-.372.55-1.013.863-1.56,1.559-2.615a19.94,19.94,0,0,1,6.532-6.526,24.463,24.463,0,0,1,8.775-2.715c1.238-.174,2.273-.275,3-.333a5.02,5.02,0,0,1,1.146-.038,5.166,5.166,0,0,1-1.12.242l-2.959.52a25.208,25.208,0,0,0-8.472,2.943,19.391,19.391,0,0,0-6.111,6.414c-.654,1.038-1.14,1.943-1.471,2.582s-.521,1-.521,1-.746,1.386-1.69,3.565c-.348.03-.7.06-1.047.079C1374.375,343.527,1374.414,343.425,1374.452,343.332Z" fill="url(#radial-gradient-8)" style="mix-blend-mode: screen;isolation: isolate"/>
      <path id="Path_27" data-name="Path 27" d="M1339.953,300.234a67.679,67.679,0,0,1,3.524,7.728,66.93,66.93,0,0,1,2.823,10.369c.316,1.436.4,2.661.541,3.506.116.849.182,1.335.182,1.335s.03.488.082,1.343c.025.856.183,2.074.151,3.543.031,1.274,0,2.738-.093,4.3-.28-.314-.559-.63-.827-.955.029-1.194.025-2.318-.018-3.32.007-1.447-.17-2.645-.208-3.487-.063-.84-.1-1.321-.1-1.321s-.057-.478-.159-1.316c-.127-.833-.188-2.043-.475-3.462A68.447,68.447,0,0,0,1342.8,308.2a73.936,73.936,0,0,0-3.043-7.276Q1339.85,300.579,1339.953,300.234Z" fill="url(#radial-gradient-9)" style="mix-blend-mode: screen;isolation: isolate"/>
      <path id="Path_28" data-name="Path 28" d="M1352.1,329.984c.492-2.178.892-4.226,1.108-6,.132-.884.216-1.7.278-2.42s.13-1.351.149-1.871c.059-1.039.092-1.633.092-1.633s.017-.594.047-1.634c.024-.52.021-1.151.008-1.876s-.016-1.542-.073-2.433c-.066-1.784-.29-3.856-.6-6.067a69.661,69.661,0,0,0-1.421-6.85c-.63-2.3-1.374-4.568-2.179-6.656-.782-1.945-1.566-3.741-2.342-5.27.1-.108.191-.217.289-.323.855,1.54,1.719,3.379,2.58,5.38a61.122,61.122,0,0,1,3.906,13.587c.349,2.235.607,4.335.7,6.146.07.9.1,1.733.108,2.47s.034,1.378.017,1.907l-.027,1.662s-.041.6-.114,1.659c-.027.529-.092,1.168-.177,1.9s-.17,1.559-.317,2.454a61.744,61.744,0,0,1-1.217,6.068c-.5,1.919-1.133,3.922-1.846,5.907-.206-.167-.407-.34-.608-.512C1351.1,333.694,1351.663,331.8,1352.1,329.984Z" fill="url(#radial-gradient-10)" style="mix-blend-mode: screen;isolation: isolate"/>
      <path id="Path_29" data-name="Path 29" d="M1361.081,278.162l-.24.624s-.083.229-.229.629-.378.963-.586,1.664a45.6,45.6,0,0,0-1.351,5.187,48.591,48.591,0,0,0-.683,5.333,15.569,15.569,0,0,1-.206,2.456,10.758,10.758,0,0,1-.19-2.468,37.92,37.92,0,0,1,.369-5.441,42.377,42.377,0,0,1,1.165-5.343c.188-.724.415-1.305.542-1.723s.216-.651.216-.651l.029-.071c.421-.167.845-.328,1.274-.479C1361.152,277.98,1361.116,278.077,1361.081,278.162Z" fill="url(#radial-gradient-11)" style="mix-blend-mode: screen;isolation: isolate"/>
      <path id="Path_30" data-name="Path 30" d="M1359.282,335.092c.662-2.622,1.007-4.39,1.007-4.39s.405-1.756.844-4.422a73.145,73.145,0,0,0,.954-9.854,62.4,62.4,0,0,0-.53-9.893c-.174-1.343-.372-2.457-.515-3.235a6.084,6.084,0,0,1-.178-1.236,5.987,5.987,0,0,1,.379,1.192c.207.766.47,1.874.7,3.217a56.567,56.567,0,0,1,.859,9.965,70.9,70.9,0,0,1-.747,9.987c-.393,2.706-.775,4.49-.775,4.49s-.377,1.784-1.1,4.417c-.42,1.562-.981,3.418-1.631,5.376-.253-.113-.508-.222-.757-.341C1358.392,338.44,1358.9,336.622,1359.282,335.092Z" fill="url(#radial-gradient-12)" style="mix-blend-mode: screen;isolation: isolate"/>
    </g>
  </g>
</svg>
