<svg xmlns="http://www.w3.org/2000/svg" xmlns:xlink="http://www.w3.org/1999/xlink" width="142.317" height="132.283" viewBox="0 0 142.317 132.283">
  <defs>
    <linearGradient id="linear-gradient" x1="59.026" y1="9.763" x2="60.026" y2="9.763" gradientUnits="objectBoundingBox">
      <stop offset="0" stop-color="#8725f9"/>
      <stop offset="1" stop-color="#51149f"/>
    </linearGradient>
    <radialGradient id="radial-gradient" cx="-0.14" cy="0.809" r="1.415" gradientUnits="objectBoundingBox">
      <stop offset="0.218" stop-color="#de007b"/>
      <stop offset="0.919" stop-color="#ffe245"/>
    </radialGradient>
    <radialGradient id="radial-gradient-2" cx="-0.086" cy="0.5" r="1.576" gradientUnits="objectBoundingBox">
      <stop offset="0.056" stop-color="#732fa4"/>
      <stop offset="0.663" stop-color="#8ee1ee"/>
      <stop offset="1" stop-color="#d1e1ee"/>
    </radialGradient>
    <linearGradient id="linear-gradient-2" x1="42.046" y1="10.959" x2="43.165" y2="10.959" gradientUnits="objectBoundingBox">
      <stop offset="0" stop-color="#cd5113"/>
      <stop offset="1" stop-color="#e7ad4b"/>
    </linearGradient>
  </defs>
  <g id="Group_14" data-name="Group 14" transform="translate(-213.664 -232.797)">
    <g id="Group_12" data-name="Group 12">
      <circle id="Ellipse_8" data-name="Ellipse 8" cx="50.757" cy="50.757" r="50.757" transform="translate(218.879 326.83) rotate(-67.865)" fill="url(#linear-gradient)"/>
      <path id="Path_40" data-name="Path 40" d="M266.714,251.611a46.523,46.523,0,0,0,65.564,65.81,50.75,50.75,0,1,1-65.564-65.81Z" opacity="0.45" fill="url(#radial-gradient)" style="mix-blend-mode: multiply;isolation: isolate"/>
      <g id="Group_11" data-name="Group 11" opacity="0.5">
        <path id="Path_41" data-name="Path 41" d="M331.046,280.679a57.878,57.878,0,0,1-9.481-.2,70.864,70.864,0,0,1-10.7-2.039,80.217,80.217,0,0,1-10.264-3.7,79.29,79.29,0,0,1-8.432-4.44c-1.208-.7-2.275-1.409-3.212-2.05-.949-.624-1.764-1.186-2.41-1.685l-2.057-1.528-1.949-1.657c-.629-.516-1.356-1.184-2.183-1.957-.416-.384-.857-.794-1.323-1.225l-1.413-1.412c-1.988-1.951-4.146-4.378-6.37-7.042-.355-.435-.709-.889-1.064-1.338q1.186-.364,2.393-.669c.146.17.292.349.437.516,2.251,2.541,4.418,4.851,6.4,6.7l1.409,1.338,1.314,1.158c.821.731,1.541,1.363,2.163,1.848l1.923,1.562,1.953,1.52c.612.5,1.386,1.057,2.289,1.682.89.642,1.906,1.351,3.056,2.06a78.926,78.926,0,0,0,8.05,4.525,81.173,81.173,0,0,0,9.848,3.91,73.057,73.057,0,0,0,10.339,2.382,62.92,62.92,0,0,0,9.252.664c.315,0,.621,0,.923-.009.138.333.266.67.4,1.006Z" fill="#fff"/>
        <path id="Path_42" data-name="Path 42" d="M275.393,338.966c-2.039-1.016-4.078-2.032-6.086-3.031a27.153,27.153,0,0,1-5.786-3.652,9.907,9.907,0,0,1-3.67-5.783,6.792,6.792,0,0,1,.328-3.43,7.413,7.413,0,0,1,1.752-2.671,9.623,9.623,0,0,1,4.715-2.489,14.171,14.171,0,0,1,3.954-.241,23.729,23.729,0,0,1,2.437.31l.837.158a79.066,79.066,0,0,1,11.069,3.406c3.237,1.21,6.925,2.786,10.848,4.477s8.093,3.474,12.352,4.973a66.144,66.144,0,0,0,12.8,3.2c.178.026.354.045.531.068q-.689.709-1.4,1.388a66.357,66.357,0,0,1-12.554-2.785c-4.386-1.408-8.646-3.113-12.613-4.708s-7.648-3.08-10.842-4.2-5.882-1.912-7.776-2.4l-2.206-.525-.777-.163-.769-.159a21.044,21.044,0,0,0-2.146-.314,8.436,8.436,0,0,0-6.668,1.851,4.443,4.443,0,0,0-1.445,3.9,7.628,7.628,0,0,0,2.772,4.406,25.142,25.142,0,0,0,5.245,3.476l6,3.192c7.415,3.947,14.8,7.9,20.612,11.063-.6.145-1.205.286-1.813.41C289.365,345.894,282.38,342.44,275.393,338.966Z" fill="#fff"/>
        <path id="Path_43" data-name="Path 43" d="M291.521,339.455a6.859,6.859,0,0,1-.727-.633,5.258,5.258,0,0,1-1.069-1.47,3.024,3.024,0,0,1-.273-1.843,2.729,2.729,0,0,1,.539-1.174,2.939,2.939,0,0,1,.918-.731,3.635,3.635,0,0,1,.511-.217l.272-.083a5.627,5.627,0,0,1,1.387-.156,9.925,9.925,0,0,1,3.178.619c2.27.791,5.184,1.929,8.067,3.213a84.641,84.641,0,0,1,8.574,4.367c-.322.212-.648.416-.975.62-2.209-.869-5.239-2.088-8.329-3.156-2.915-1.027-5.892-1.968-8.086-2.588a7.426,7.426,0,0,0-2.372-.345,3.2,3.2,0,0,0-.561.077,1.17,1.17,0,0,0-.174.044l-.1.027a.905.905,0,0,0-.127.048c-.042.021-.013.006-.026.01s-.008,0-.023,0-.049-.039.03.191a2.639,2.639,0,0,0,.5.774,4.343,4.343,0,0,0,.44.439l.632.518c1.793,1.462,4.094,3.177,6.417,4.746,1.593,1.089,3.2,2.086,4.622,2.945-.549.232-1.107.445-1.665.658-1.253-.59-2.592-1.269-3.928-2.02a76.666,76.666,0,0,1-6.933-4.362Z" fill="#fff"/>
        <path id="Path_44" data-name="Path 44" d="M295.55,319.93a89.351,89.351,0,0,1-12.318-5.629c-3.457-1.932-6.266-3.664-8.178-4.952-1.934-1.258-3-2.032-3-2.032s-4.318-3.027-10.36-8.069c-3.008-2.531-6.475-5.531-10.084-8.861s-7.355-6.99-10.992-10.754c-.585-.6-1.161-1.216-1.739-1.825.281-.615.576-1.22.879-1.819q1.123,1.132,2.26,2.257c3.7,3.65,7.5,7.194,11.143,10.428s7.138,6.137,10.161,8.589c6.064,4.877,10.341,7.779,10.341,7.779s1.036.776,2.91,2.038c1.854,1.3,4.573,3.033,7.913,4.981a88.188,88.188,0,0,0,11.875,5.7,65.972,65.972,0,0,0,14.542,3.871,60.574,60.574,0,0,0,15.066.169c1.609-.177,3.172-.4,4.686-.665-.26.537-.523,1.072-.8,1.6-1.2.23-2.433.438-3.694.615a60.9,60.9,0,0,1-15.508.24A67.108,67.108,0,0,1,295.55,319.93Z" fill="#fff"/>
        <path id="Path_45" data-name="Path 45" d="M237.85,313.5c.946.446,1.939.872,2.971,1.238a12.8,12.8,0,0,0,3.055.807,2.626,2.626,0,0,0,2.289-.66,5.024,5.024,0,0,0,.994-2.444,12.706,12.706,0,0,0-.2-5.292,18.143,18.143,0,0,0-1.312-3.617c-.409-.843-.686-1.305-.686-1.305s-.241-.474-.731-1.294a37,37,0,0,0-2.267-3.291c-1.744-2.31-4.358-5.185-6.769-8.39q.252-1.284.573-2.566c2.782,3.506,5.975,6.653,8.2,9.355a32.36,32.36,0,0,1,3.435,4.849s.294.53.722,1.5a20.416,20.416,0,0,1,1.341,4.213,14.986,14.986,0,0,1-.054,6.328,7,7,0,0,1-1.734,3.474,4.172,4.172,0,0,1-1.982,1.054,5.787,5.787,0,0,1-2.065.04,14.264,14.264,0,0,1-3.468-1.116,31.16,31.16,0,0,1-3.035-1.5c-.125-.07-.24-.144-.363-.215-.22-.673-.423-1.352-.615-2.035C236.7,312.93,237.261,313.222,237.85,313.5Z" fill="#fff"/>
        <path id="Path_46" data-name="Path 46" d="M317.747,264.4a51.259,51.259,0,0,1-12.194.063,30.966,30.966,0,0,1-4.039-.852l-1.5-.505a13.279,13.279,0,0,1-1.453-.626,23.807,23.807,0,0,1-3.572-2.139,22.31,22.31,0,0,1-7.721-9.754,11.409,11.409,0,0,1-.617-2.391c.636.021,1.274.062,1.912.107a9.967,9.967,0,0,0,.538,1.561,18.213,18.213,0,0,0,3.348,4.965,22.074,22.074,0,0,0,4.005,3.4,19.331,19.331,0,0,0,4.56,2.273l1.316.5a29.344,29.344,0,0,0,3.629.921,52.187,52.187,0,0,0,11.648.506c.852-.038,1.705-.078,2.554-.118q.837.805,1.635,1.646C320.474,264.111,319.116,264.262,317.747,264.4Z" fill="#fff"/>
        <path id="Path_47" data-name="Path 47" d="M259.725,340.716a70.925,70.925,0,0,1-5.558-6.1,24.471,24.471,0,0,1-2.178-3.209s-.183-.349-.462-.983a17.349,17.349,0,0,1-.944-2.734,14.476,14.476,0,0,1-.445-4.091,11.119,11.119,0,0,1,1.158-4.61,14.4,14.4,0,0,1,6.111-5.86c2-1.074,3.427-1.517,3.506-1.36.1.184-1.177.964-2.918,2.271a14.41,14.41,0,0,0-4.906,5.768,10.687,10.687,0,0,0-.035,7.184,15.224,15.224,0,0,0,.943,2.269c.273.534.449.831.449.831a23,23,0,0,0,1.791,3.005c1.2,1.755,3.044,4.047,4.933,6.279,2.429,2.892,5.05,5.616,6.544,7.267q-1.309-.474-2.575-1.015C263.514,344.294,261.569,342.566,259.725,340.716Z" fill="#fff"/>
        <path id="Path_48" data-name="Path 48" d="M275.2,269.455a31.293,31.293,0,0,1,4.523,5.088,16.273,16.273,0,0,1,1.045,1.64l.347.6s.117.21.3.626a16.712,16.712,0,0,1,.748,1.813,12.2,12.2,0,0,1,.776,3.077,6.148,6.148,0,0,1-.164,2.208,4.9,4.9,0,0,1-1.322,2.233,7.448,7.448,0,0,1-4.781,1.9,11.578,11.578,0,0,1-5.28-1c-3.362-1.434-6.2-3.882-8.952-6.155-5.563-4.6-11.109-9.213-15.234-12.716q-.966-.82-1.818-1.551c.193-.241.381-.486.578-.723q.906.669,1.919,1.428c4.332,3.241,10.061,7.618,15.773,12.012,2.858,2.212,5.666,4.427,8.6,5.563a9.235,9.235,0,0,0,4.225.7,5,5,0,0,0,3.155-1.279c1.261-1.251.493-3.417-.038-4.75a14.181,14.181,0,0,0-.684-1.554c-.162-.357-.269-.538-.269-.538l-.293-.53a13.892,13.892,0,0,0-.889-1.468,28.946,28.946,0,0,0-4.035-4.763,84.885,84.885,0,0,0-6.945-5.891,99.524,99.524,0,0,1-8.158-6.913c-.573-.544-1.13-1.1-1.681-1.664.54-.363,1.091-.709,1.643-1.05.456.426.91.855,1.379,1.27a102.767,102.767,0,0,0,8.22,6.521A84.4,84.4,0,0,1,275.2,269.455Z" fill="#fff"/>
        <path id="Path_49" data-name="Path 49" d="M333.184,295.984a53.05,53.05,0,0,0-9.172,1.381l-.849.235-.74.266a10.413,10.413,0,0,0-1.182.465l-1,.459c-.091.04-.027,0-.075.008a.036.036,0,0,0-.026.043c0,.008,0,.009.009.025a2.207,2.207,0,0,0,.2.185c.117.108.436.287.665.439a18.83,18.83,0,0,0,8.439,2.728,41.563,41.563,0,0,0,6.2.074c-.032.489-.066.978-.113,1.467a36.768,36.768,0,0,1-6.214.426,20.44,20.44,0,0,1-9.64-2.494,10.353,10.353,0,0,1-.913-.546,4.913,4.913,0,0,1-.456-.371,4.154,4.154,0,0,1-.519-.588,2.448,2.448,0,0,1-.368-2.409,2.6,2.6,0,0,1,1.088-1.224c.17-.105.308-.177.4-.224l.1-.047,1.185-.48a12.132,12.132,0,0,1,1.378-.465l.854-.255.955-.212a50.3,50.3,0,0,1,9.667-.854c.829-.014,1.655-.034,2.465-.062.059.589.115,1.178.153,1.77C334.858,295.819,334.019,295.9,333.184,295.984Z" fill="#fff"/>
        <path id="Path_50" data-name="Path 50" d="M237.737,299.616c.289.507.561,1,.81,1.477a11.228,11.228,0,0,1,.667,1.5,7.259,7.259,0,0,1,.475,2.629,4.01,4.01,0,0,1-.182,1.173,1.762,1.762,0,0,1-.12.31,3.753,3.753,0,0,1-.5.837,3.809,3.809,0,0,1-1.173.952,4.475,4.475,0,0,1-1.678.45,7.139,7.139,0,0,1-.771.015q-.253-1.246-.441-2.508a6.012,6.012,0,0,0,.925-.059,1.257,1.257,0,0,0,.975-.517.916.916,0,0,0,.133-.332,1.317,1.317,0,0,0,.109-.467,4.7,4.7,0,0,0-.195-1.7,8.857,8.857,0,0,0-.434-1.228c-.2-.47-.417-.961-.649-1.467-.422-.912-.9-1.868-1.411-2.816.023-1.068.068-2.139.16-3.212.463.6.922,1.225,1.358,1.874C236.5,297.547,237.156,298.6,237.737,299.616Z" fill="#fff"/>
        <path id="Path_51" data-name="Path 51" d="M264.607,268.562a5.059,5.059,0,0,1,1.469,1.547,2.543,2.543,0,0,1,.265,2.061,2.4,2.4,0,0,1-.743,1.124,1.94,1.94,0,0,1-.4.282,2.351,2.351,0,0,1-.464.193,3.514,3.514,0,0,1-.6.132,4.254,4.254,0,0,1-.754.037,5.64,5.64,0,0,1-.688-.071l-.666-.141a14.331,14.331,0,0,1-1.547-.4,24.372,24.372,0,0,1-7.44-3.832,43.255,43.255,0,0,1-5.463-4.835c.273-.3.557-.584.837-.875a58.454,58.454,0,0,0,5.723,4.072,23.577,23.577,0,0,0,7.006,2.989,12,12,0,0,0,1.364.26l.56.086a2.843,2.843,0,0,0,.365.014c.142,0,.075-.009.093-.012v-.009l0-.007s.006.014.032.011a.036.036,0,0,0,.028-.036,2.308,2.308,0,0,0-.579-.593l-6.1-5.219c-1.879-1.627-3.745-3.266-5.253-4.638.319-.278.637-.558.963-.828,1.639,1.133,3.58,2.519,5.516,3.924Z" fill="#fff"/>
        <path id="Path_52" data-name="Path 52" d="M334.517,289.517a50.211,50.211,0,0,1-9.922,1.1,102.087,102.087,0,0,1-11.393-.541c-3.859-.361-7.677-.9-11.213-1.094a42.374,42.374,0,0,0-5.062-.011c-.8.046-1.566.13-2.3.228a10.447,10.447,0,0,0-1.942.4,1.322,1.322,0,0,0-.836.631,1.941,1.941,0,0,0-.077,1.07,6.884,6.884,0,0,0,.362,1.353,11.894,11.894,0,0,0,.451,1.211,14.934,14.934,0,0,0,1.1,2.2,17.133,17.133,0,0,0,1.336,2.078,23.123,23.123,0,0,0,4.635,4.663A28.01,28.01,0,0,0,308,307.142a44.782,44.782,0,0,0,10.827,2.008,142.221,142.221,0,0,0,15.926-.109c-.094.461-.19.921-.3,1.381a124.84,124.84,0,0,1-15.738.7,46.067,46.067,0,0,1-11.411-1.772,30.214,30.214,0,0,1-9.19-4.478,25.554,25.554,0,0,1-5.285-5.082,19.486,19.486,0,0,1-1.576-2.338,17.29,17.29,0,0,1-1.209-2.563,14.31,14.31,0,0,1-.491-1.414,9.191,9.191,0,0,1-.429-1.831,4.454,4.454,0,0,1,.38-2.585,3.914,3.914,0,0,1,2.327-1.877,12.49,12.49,0,0,1,2.472-.468c.808-.087,1.643-.156,2.5-.183a44.2,44.2,0,0,1,5.342.152c3.673.3,7.475.962,11.272,1.442a108.567,108.567,0,0,0,11.177.941,53.251,53.251,0,0,0,9.713-.61c.124-.019.24-.042.362-.063.074.346.134.7.2,1.043C334.754,289.46,334.639,289.49,334.517,289.517Z" fill="#fff"/>
      </g>
    </g>
    <g id="Group_13" data-name="Group 13">
      <path id="Path_53" data-name="Path 53" d="M214.629,259.027c3.894-6.819,18.935-6.227,38.821.236-1.472,1.129-4.513,3.985-5.862,5.214-10.507-2.435-16.366-3.7-18.585.184-4.8,8.4,16.8,29.768,48.242,47.723s60.818,25.7,65.616,17.3c2.223-3.894-1.661-8.371-9.131-16.206a77.141,77.141,0,0,0,1.18-7.746c15.786,13.9,24.016,26.624,20.107,33.469-6.414,11.232-43.04,2.39-81.808-19.75S208.215,270.259,214.629,259.027Z" fill="url(#radial-gradient-2)"/>
      <path id="Path_54" data-name="Path 54" d="M214.629,259.027c3.894-6.819,18.935-6.227,38.821.236-1.472,1.129-4.513,3.985-5.862,5.214-10.507-2.435-16.366-3.7-18.585.184-4.8,8.4,16.8,29.768,48.242,47.723s60.818,25.7,65.616,17.3c2.223-3.894-1.661-8.371-9.131-16.206a77.141,77.141,0,0,0,1.18-7.746c15.786,13.9,24.016,26.624,20.107,33.469-6.414,11.232-43.04,2.39-81.808-19.75S208.215,270.259,214.629,259.027Z" fill="url(#linear-gradient-2)"/>
    </g>
  </g>
</svg>
