<svg xmlns="http://www.w3.org/2000/svg" xmlns:xlink="http://www.w3.org/1999/xlink" width="41.836" height="41.836" viewBox="0 0 41.836 41.836">
  <defs>
    <linearGradient id="linear-gradient" x1="108.845" y1="116.185" x2="109.845" y2="116.185" gradientUnits="objectBoundingBox">
      <stop offset="0" stop-color="#641e53"/>
      <stop offset="1" stop-color="#db34a8"/>
    </linearGradient>
    <radialGradient id="radial-gradient" cx="0.559" cy="0.643" r="0.915" gradientUnits="objectBoundingBox">
      <stop offset="0.081" stop-color="#ffe245"/>
      <stop offset="0.996" stop-color="#e38427"/>
    </radialGradient>
    <radialGradient id="radial-gradient-2" cx="0.56" cy="0.649" r="0.829" xlink:href="#radial-gradient"/>
    <radialGradient id="radial-gradient-3" cx="0.566" cy="0.642" r="0.873" xlink:href="#radial-gradient"/>
    <radialGradient id="radial-gradient-4" cx="0.509" cy="0.497" r="0.473" xlink:href="#radial-gradient"/>
    <radialGradient id="radial-gradient-5" cx="0.5" cy="0.5" r="0.429" xlink:href="#radial-gradient"/>
    <radialGradient id="radial-gradient-6" cx="0.509" cy="0.493" r="0.513" xlink:href="#radial-gradient"/>
    <radialGradient id="radial-gradient-7" cx="0.5" cy="0.5" r="0.452" xlink:href="#radial-gradient"/>
    <radialGradient id="radial-gradient-8" cx="0.5" cy="0.503" r="1.38" xlink:href="#radial-gradient"/>
    <radialGradient id="radial-gradient-9" cx="0.501" cy="0.536" r="2.05" xlink:href="#radial-gradient"/>
    <radialGradient id="radial-gradient-10" cx="0.5" cy="0.517" r="1.844" xlink:href="#radial-gradient"/>
    <radialGradient id="radial-gradient-11" cx="0.5" cy="0.443" r="3.239" xlink:href="#radial-gradient"/>
  </defs>
  <g id="Group_17" data-name="Group 17" transform="translate(-1098.429 -76.883)">
    <circle id="Ellipse_9" data-name="Ellipse 9" cx="14.799" cy="14.799" r="14.799" transform="matrix(0.684, -0.73, 0.73, 0.684, 1098.429, 98.483)" fill="url(#linear-gradient)"/>
    <path id="Path_55" data-name="Path 55" d="M1134.138,97.318c0,.072,0,.144,0,.216a11.868,11.868,0,1,0-17.575,14.8,14.8,14.8,0,1,1,17.573-15.016Z" opacity="0.45" fill="url(#radial-gradient)" style="mix-blend-mode: multiply;isolation: isolate"/>
    <g id="Group_15" data-name="Group 15">
      <path id="Path_56" data-name="Path 56" d="M1133.215,97.75a11.05,11.05,0,0,0-2.577-3.428,11.043,11.043,0,0,1,2.471,1.945c.053.422.09.849.1,1.283C1133.215,97.617,1133.213,97.683,1133.215,97.75Z" opacity="0.45" fill="url(#radial-gradient-2)" style="mix-blend-mode: multiply;isolation: isolate"/>
      <path id="Path_57" data-name="Path 57" d="M1128.464,87.61a13.719,13.719,0,0,0-16.069,22.125,13.721,13.721,0,1,1,16.069-22.125Z" opacity="0.45" fill="url(#radial-gradient-3)" style="mix-blend-mode: multiply;isolation: isolate"/>
    </g>
    <g id="Group_16" data-name="Group 16">
      <path id="Path_58" data-name="Path 58" d="M1125.163,108.709a11.664,11.664,0,0,1-1.616-3.488,5.559,5.559,0,0,1-.183-1.285,3.7,3.7,0,0,1,.023-.5,2.634,2.634,0,0,1,.1-.495,3.4,3.4,0,0,1,.591-1.185,5.015,5.015,0,0,1,3.4-1.8,9.4,9.4,0,0,1,3.787.529c.5.16.9.313,1.181.423a2.008,2.008,0,0,1,.435.2c-.011.034-.67-.181-1.665-.453a9.666,9.666,0,0,0-3.7-.383,4.7,4.7,0,0,0-3.107,1.729,3.015,3.015,0,0,0-.5,1.052,2.244,2.244,0,0,0-.08.435,3.3,3.3,0,0,0-.029.447,5.18,5.18,0,0,0,.146,1.191,11.525,11.525,0,0,0,1.482,3.414,20.861,20.861,0,0,0,1.444,2.006c-.067.04-.136.078-.2.116A19.266,19.266,0,0,1,1125.163,108.709Z" fill="url(#radial-gradient-4)" style="mix-blend-mode: screen;isolation: isolate"/>
      <path id="Path_59" data-name="Path 59" d="M1111.229,96.8a9.331,9.331,0,0,1,1.618,1.629c.171.22.3.395.379.522l.126.191.123.192c.072.13.179.32.314.562a14.717,14.717,0,0,1,.873,2.112,66.353,66.353,0,0,1,1.5,6.685,20.017,20.017,0,0,0,1.085,3.454c.048.111.1.214.15.321-.1-.013-.193-.027-.289-.042-.029-.06-.06-.117-.088-.178a19.7,19.7,0,0,1-1.164-3.483c-.29-1.216-.516-2.439-.765-3.574a27.116,27.116,0,0,0-.817-3.053,14.347,14.347,0,0,0-.869-2.038l-.308-.537-.12-.182-.118-.184c-.073-.122-.2-.291-.356-.5a8.931,8.931,0,0,0-1.529-1.575,12.753,12.753,0,0,0-6.074-2.54c.023-.1.051-.205.076-.307a14.813,14.813,0,0,1,3.458.915A11.38,11.38,0,0,1,1111.229,96.8Z" fill="url(#radial-gradient-5)" style="mix-blend-mode: screen;isolation: isolate"/>
      <path id="Path_60" data-name="Path 60" d="M1118.743,107.223c-.414-1.255-.827-2.51-1.214-3.686-.194-.589-.38-1.158-.558-1.7a7.665,7.665,0,0,1-.407-1.589,2.424,2.424,0,0,1,.255-1.429,3.523,3.523,0,0,1,.678-.874,5.306,5.306,0,0,1,.731-.6,5.457,5.457,0,0,1,.809-.473,8.936,8.936,0,0,1,2.326-.751,11.051,11.051,0,0,1,1.612-.185,16.143,16.143,0,0,1,1.805-.011,19.244,19.244,0,0,1,3.86.607,33.507,33.507,0,0,1,5.484,2.006c0,.074-.005.149-.01.223a34.954,34.954,0,0,0-5.55-1.924,19.073,19.073,0,0,0-3.8-.543,15.715,15.715,0,0,0-1.763.033,10.586,10.586,0,0,0-1.56.2,8.546,8.546,0,0,0-2.208.737,5.1,5.1,0,0,0-.752.45,4.983,4.983,0,0,0-.682.544,2.262,2.262,0,0,0-.827,1.949,7.341,7.341,0,0,0,.372,1.508c.17.542.35,1.113.536,1.7.371,1.182.767,2.442,1.162,3.7l1.681,5.406-.209.019Z" fill="url(#radial-gradient-6)" style="mix-blend-mode: screen;isolation: isolate"/>
      <path id="Path_61" data-name="Path 61" d="M1104.737,99.163c1.029.379,1.691.695,1.691.695s.166.079.451.226.694.355,1.164.644a8.7,8.7,0,0,1,2.944,2.76,10.685,10.685,0,0,1,1.312,3.795c.093.538.152.989.188,1.305a2.3,2.3,0,0,1,.033.5,2.163,2.163,0,0,1-.122-.485l-.269-1.285a11.041,11.041,0,0,0-1.407-3.66,8.458,8.458,0,0,0-2.889-2.577c-.463-.272-.865-.471-1.149-.607s-.445-.213-.445-.213-.616-.306-1.581-.687c-.018-.152-.036-.3-.05-.456Z" fill="url(#radial-gradient-7)" style="mix-blend-mode: screen;isolation: isolate"/>
      <path id="Path_62" data-name="Path 62" d="M1123.072,83.478a29.532,29.532,0,0,1-3.326,1.649,29.1,29.1,0,0,1-4.489,1.381c-.623.159-1.157.213-1.524.287l-.581.1-.585.055c-.374.023-.9.11-1.546.117-.556.031-1.2.038-1.878.02.133-.127.268-.253.405-.375.522,0,1.013-.022,1.451-.055.632-.017,1.153-.112,1.52-.14l.576-.063.572-.088c.362-.067.89-.111,1.506-.257a30.082,30.082,0,0,0,4.458-1.272,32.613,32.613,0,0,0,3.135-1.433C1122.869,83.426,1122.97,83.451,1123.072,83.478Z" fill="url(#radial-gradient-8)" style="mix-blend-mode: screen;isolation: isolate"/>
      <path id="Path_63" data-name="Path 63" d="M1110.249,89.209c.958.184,1.859.329,2.636.4.388.045.744.07,1.061.087s.592.037.82.038l.714.017.715,0c.227,0,.5-.007.819-.023s.674-.029,1.062-.066c.778-.055,1.681-.182,2.642-.348a30.37,30.37,0,0,0,2.972-.718c1-.308,1.976-.666,2.877-1.047.838-.37,1.612-.738,2.269-1.1l.145.121c-.661.4-1.452.8-2.313,1.2a26.753,26.753,0,0,1-5.88,1.9c-.972.184-1.886.327-2.675.394-.394.043-.756.068-1.078.082s-.6.035-.833.035l-.726.012-.727-.026c-.231,0-.511-.024-.832-.05s-.683-.053-1.077-.1c-.788-.082-1.7-.243-2.668-.445-.845-.19-1.729-.439-2.606-.723.07-.092.142-.182.214-.272C1108.614,88.823,1109.45,89.043,1110.249,89.209Z" fill="url(#radial-gradient-9)" style="mix-blend-mode: screen;isolation: isolate"/>
      <path id="Path_64" data-name="Path 64" d="M1133.015,92.393l-.276-.1-.278-.091c-.178-.054-.426-.152-.735-.232a19.868,19.868,0,0,0-2.285-.517,21.2,21.2,0,0,0-2.34-.222,6.825,6.825,0,0,1-1.076-.055,4.674,4.674,0,0,1,1.076-.118,16.641,16.641,0,0,1,2.382.083,18.674,18.674,0,0,1,2.351.433c.319.072.576.163.76.212l.288.085.031.012c.079.182.155.364.228.55Z" fill="url(#radial-gradient-10)" style="mix-blend-mode: screen;isolation: isolate"/>
      <path id="Path_65" data-name="Path 65" d="M1108.12,92.419c1.155.251,1.932.377,1.932.377s.773.152,1.944.306a32.127,32.127,0,0,0,4.318.276,27.258,27.258,0,0,0,4.314-.373c.585-.095,1.068-.2,1.406-.271a2.62,2.62,0,0,1,.538-.1,2.578,2.578,0,0,1-.516.182c-.332.1-.812.232-1.4.354a24.7,24.7,0,0,1-4.341.517,30.943,30.943,0,0,1-4.374-.183c-1.187-.134-1.972-.275-1.972-.275s-.785-.139-1.945-.416c-.688-.161-1.507-.38-2.372-.636.046-.112.09-.225.138-.335C1106.645,92.077,1107.446,92.274,1108.12,92.419Z" fill="url(#radial-gradient-11)" style="mix-blend-mode: screen;isolation: isolate"/>
    </g>
  </g>
</svg>
