<svg xmlns="http://www.w3.org/2000/svg" width="889.852" height="3197.352" viewBox="0 0 889.852 3197.352">
  <g id="Women" transform="translate(-515.074 -224.543)">
    <rect id="Rectangle_15" data-name="Rectangle 15" width="7.423" transform="translate(990.573 1080)" fill="#fff"/>
    <g id="Group_28" data-name="Group 28">
      <g id="Group_21" data-name="Group 21">
        <g id="Left_Leg" data-name="Left Leg">
          <g id="Group_18" data-name="Group 18">
            <path id="Path_66" data-name="Path 66" d="M747.02,3406.8a14.563,14.563,0,0,0,14.544,15.091H862.8a14.7,14.7,0,0,0,14.649-15.091l-3.112-138.879c-.163-7.337-6.595-13.3-14.3-13.3H774.214c-7.7,0-25.417,95.631-27.656,111.334C744.878,3377.709,747.02,3406.8,747.02,3406.8Z" fill="#150f1f"/>
            <path id="Path_67" data-name="Path 67" d="M756.649,3347.618c-3.275,20.358,19.856,31.888,51.3,31.888,41.2,0,59.016-14.629,59.016-25.547s-27.018-15.7-58.457-15.7S758.381,3336.824,756.649,3347.618Z" fill="#2a1d3d"/>
            <path id="Path_68" data-name="Path 68" d="M782.358,3222.971c0,18.613-31.048,114.55-24.479,128.2,3.015,6.263,26.178,9.778,50.4,10.625,28.522,1.022,58.483-1.647,58.691-7.839.71-21.783-.234-124.784-1.53-130.988-1.322-6.2-17.7-53.984-44.479-49.6S782.358,3222.971,782.358,3222.971Z" fill="#7791f4"/>
          </g>
          <path id="Path_69" data-name="Path 69" d="M883.484,2598.9c6.77-13.535,18.463-129.726,20.533-154.615s37.344-427.275,37.344-499.872-1.205-244.445-89.2-273.793c-67.245-22.435-149.341,6.217-149.341,6.217S655.113,1894.629,659.267,1961s99.556,466.7,97.486,510.25c0,0-10.26,115.65,18.548,137.623C794.2,2623.282,865.072,2635.73,883.484,2598.9Z" fill="#101321"/>
          <path id="Path_70" data-name="Path 70" d="M883.275,2620.3s6.231,172.531,6.231,205.715-12.448,81.841-14.525,115.018,1.556,251.229,1.556,251.229,3.757,38.534-55.488,38.534c-26.959,0-52.161,2.266-52.161-19.85,7.819-110.5-50.26-340.563-53.619-395.992-4.147-68.568,39.407-294.191,41.484-340.642,0,0,7.845-53.522,79.094-48.867,69.928,4.564,50.833,162.427,47.852,191.047C883.438,2618.959,883.275,2620.3,883.275,2620.3Z" fill="#101321"/>
        </g>
        <g id="Right_Leg" data-name="Right Leg">
          <g id="Group_19" data-name="Group 19">
            <path id="Path_71" data-name="Path 71" d="M1183.735,3406.8a14.554,14.554,0,0,1-14.544,15.091h-101.23a14.692,14.692,0,0,1-14.648-15.091l3.1-138.879c.17-7.337,6.595-13.3,14.3-13.3h85.826c7.7,0,25.416,95.631,27.649,111.334C1185.877,3377.709,1183.735,3406.8,1183.735,3406.8Z" fill="#150f1f"/>
            <path id="Path_72" data-name="Path 72" d="M1174.106,3347.618c3.275,20.358-19.856,31.888-51.3,31.888-41.2,0-59.017-14.629-59.017-25.547s27.018-15.7,58.457-15.7S1172.375,3336.824,1174.106,3347.618Z" fill="#2a1d3d"/>
            <path id="Path_73" data-name="Path 73" d="M1148.4,3222.971c0,18.613,31.048,114.55,24.479,128.2-3.014,6.263-26.178,9.778-50.4,10.625-28.515,1.022-58.476-1.647-58.691-7.839-.709-21.783.235-124.784,1.53-130.988,1.322-6.2,17.7-53.984,44.479-49.6S1148.4,3222.971,1148.4,3222.971Z" fill="#7791f4"/>
          </g>
          <path id="Path_74" data-name="Path 74" d="M1039.6,2615.958c-.833,30.533-18.339,129.217-11.556,192.563,6.628,61.875,18.679,101.067,25.261,305.512.319,9.961,1.575,67.128,0,100.227,0,0,12.057,14.368,47.18,13.034,60.332-2.3,55.631-20.931,53.711-30.358,0,0,48.053-381.631,49.98-427.809,2.317-55.624-23.171-162.232-27.813-206.261-.1-1.035-19.257-109.029-78.378-97.571C1034.355,2477.626,1039.6,2615.958,1039.6,2615.958Z" fill="#101321"/>
          <path id="Path_75" data-name="Path 75" d="M1175.109,2560.691c-4.108-43.6.312-99.009.312-105.8,0-6.953,98.815-414.644,96.5-495.751s-29.29-315.368-126.627-308.415-166.86,111.236-152.954,294.32c0,0,23.177,475.094,27.812,514.488s15.918,127.584,18.535,155.266c3.307,34.9,35.775,66.028,94.928,49C1193.006,2646.706,1175.109,2560.691,1175.109,2560.691Z" fill="#101321"/>
        </g>
        <g id="Group_20" data-name="Group 20">
          <path id="Path_76" data-name="Path 76" d="M1141.982,1373.371H786.636c-10.013,26.614-57.012,133.293-67.1,193.754-11.484,68.854-16.712,109.713-16.712,109.713s185.266,256.769,259.952,256.769c55.547,0,280.291-165.764,280.291-165.764s-14.062-182.951-35.136-227.371C1190.818,1504.385,1153.968,1408.188,1141.982,1373.371Z" fill="#101321"/>
        </g>
      </g>
      <g id="Group_27" data-name="Group 27">
        <g id="Group_26" data-name="Group 26">
          <path id="Back_Hair" data-name="Back Hair" d="M1263.133,718.344c-.052.221-.111.434-.17.656a117,117,0,0,1-5.122,14.829,1.429,1.429,0,0,1-.074.184c-.214.5-.427.995-.656,1.489-.162.391-.332.774-.509,1.157l-.007.008c-12.522,27.617-35.222,49.6-62.094,59.826-53.4,20.32-176.51,20.32-230.327,20.32s-176.922,0-230.327-20.32c-26.872-10.223-49.572-32.209-62.094-59.834-.089-.2-.185-.4-.273-.6a115.887,115.887,0,0,1-10.149-48.955V687.1a77.788,77.788,0,0,1,5.933-20.062c.214-.487.42-.973.634-1.46,27.145-62.185,79.26-177.746,94.862-267.652a281.523,281.523,0,0,1,8.911-37.508c16.45-52.773,50.751-99.03,108.674-120.684.147-.059.3-.118.442-.17.774-.287,1.555-.567,2.337-.84.073-.022.139-.052.206-.074.811-.287,1.621-.567,2.44-.847s1.673-.568,2.52-.848,1.688-.545,2.535-.818c1.7-.546,3.406-1.076,5.13-1.577s3.457-1,5.2-1.475c1.01-.28,2.035-.545,3.059-.81s2.049-.524,3.074-.774c.685-.17,1.378-.332,2.063-.494q2.466-.587,4.946-1.12l1.908-.4c.671-.148,1.342-.281,2.013-.406,1.886-.376,3.795-.729,5.712-1.061.648-.111,1.3-.221,1.945-.324,1.3-.214,2.609-.421,3.921-.612,1.592-.236,3.2-.45,4.806-.656.715-.089,1.429-.177,2.152-.258a232.138,232.138,0,0,1,60.664.759c1.024.147,2.049.295,3.073.457.715.1,1.423.221,2.13.339.5.081,1,.162,1.511.251.28.044.568.1.855.154,1.054.177,2.115.362,3.17.568q6.975,1.315,13.752,3.015c1.769.434,3.531.9,5.277,1.37.87.229,1.74.472,2.609.723q1.14.319,2.278.663,2.31.675,4.606,1.4l.84.266c.671.214,1.342.435,2.013.656q4.068,1.326,8.026,2.771c1.15.42,2.284.84,3.42,1.275s2.255.87,3.368,1.312c.516.2,1.031.406,1.54.619,1.29.524,2.558,1.047,3.825,1.585q1.593.674,3.162,1.371a1.43,1.43,0,0,1,.192.081q1.525.673,3.044,1.371c1.068.486,2.13.973,3.184,1.474.641.3,1.289.612,1.923.921.31.148.619.3.921.457.62.295,1.239.6,1.85.907.384.191.759.383,1.143.575q4.321,2.188,8.571,4.54c.332.184.664.368.995.56.457.251.922.516,1.379.774.405.236.8.464,1.208.7s.8.457,1.187.686.788.464,1.179.7c.538.317,1.076.634,1.607.958q2.011,1.2,3.987,2.454c.266.17.538.347.8.516q1.116.7,2.211,1.415c.029.022.066.045.11.074.192.125.391.258.59.383s.42.28.626.42c.133.089.273.177.406.273.4.266.8.531,1.2.8,1.1.744,2.211,1.5,3.309,2.27.671.464,1.349.943,2.012,1.422l.376.265q1.172.841,2.322,1.7c.634.464,1.26.928,1.879,1.407,34.773,26.586,54.009,75.187,61.77,110.838,14.873,68.324,51.179,186.009,82.266,267.313C1266.081,680.636,1267.621,700.2,1263.133,718.344Z" fill="#070241"/>
          <g id="Right_Arm" data-name="Right Arm">
            <path id="Path_77" data-name="Path 77" d="M1289.249,1440.252c-40.339,3.632-44.994-20.632-64.427-54.492l-55.266-408.877s2.552-123.352,56-117.584,96.737,69.512,98.313,144.472c0,0,23.58,358.923,25.156,374.782C1349.027,1378.553,1344.144,1435.3,1289.249,1440.252Z" fill="#7791f4"/>
            <g id="Group_22" data-name="Group 22">
              <path id="Path_78" data-name="Path 78" d="M1306.853,1984.681c.865,28.378-18.47,31.6-21.107,27.792,2.93-26.953,0-45.995,0-45.995s-11.133-98.724,14.069-135.735c2.3-3.366,11.139-11.9,11.5-12.851,3.157-8.21,42.949-12,52.434,0,1.992,2.526,34.108,110.546,36,127.6s2.839,61.2,4.74,74.459-2.878,45.39-6.042,48.554-8.808,5.221-10.7-2.363,3.158-41.061-4.414-60.006c-.612-.912,2.3,19.8-.228,38.626-.8,5.332-11.041,39.225-14.654,43.17-2.982,3.249-8.75,3.978-11.185-.54-1.628-3,3.3-20.716,2.545-20.671-1.5.078-6.51,21.96-9.83,25.137s-9.824,1.041-10.886-3.894,4.532-59.81,5.013-83.339c.176-8.509-3.893-7.871-3.737-6.7.43,3.125-5.54,78.645-12.5,85.6-3.151,1.263-9.16,4.512-11.048-15.072-.8-8.268.567-16.718,1.5-36.972.71-15.345-2.076-35.507-1.673-47.819.332-9.921.378-17.473-.15-20.416" fill="#7791f4"/>
            </g>
            <path id="Path_79" data-name="Path 79" d="M1384.873,1827.716l-104.342-2.891s-60.514-324.047-56.9-376.071c-.157-42.233-3.041-71.366-.769-77.525,0,0,9.538-53.541,61.23-57.259,50.137-3.6,63.418,57.135,63.418,57.135,1.491,14.023,16.484,123.664,21,150.441S1384.677,1803.679,1384.873,1827.716Z" fill="#7791f4"/>
          </g>
          <g id="Left_Arm" data-name="Left Arm">
            <path id="Path_80" data-name="Path 80" d="M630.751,1414.033c40.339,3.64,44.994-20.624,64.427-54.485l55.266-408.877s-.625-123.052-54.075-117.284S597.705,902.6,596.129,977.559c0,0-23.58,358.923-25.156,374.782C570.973,1352.341,575.856,1409.085,630.751,1414.033Z" fill="#7791f4"/>
            <path id="Left_Hand" data-name="Left Hand" d="M620.185,1804.531c-2.3-3.366-11.139-11.9-11.5-12.851-3.157-8.21-42.949-12.005-52.434,0-1.992,2.526-34.108,110.546-36,127.6s-2.839,61.2-4.74,74.459,2.878,45.39,6.042,48.554,8.808,5.215,10.7-2.363-3.158-41.061,4.414-60.006c.612-.911-2.3,19.8.228,38.626.8,5.332,11.041,39.225,14.654,43.17,2.982,3.249,8.75,3.978,11.192-.54,1.621-3-3.308-20.716-2.552-20.677,1.5.085,6.51,21.959,9.83,25.143s9.824,1.042,10.886-3.893-4.532-59.811-5.013-83.339c-.176-8.509,3.893-7.871,3.737-6.7-.43,3.125,5.54,78.646,12.5,85.6,3.151,1.269,9.16,4.518,11.048-15.065.8-8.268-.567-16.719-1.5-36.979-.71-15.339,2.076-35.5,1.673-47.812-.332-9.922-.378-17.474.15-20.417,1.211-6.738,3.613-13.821,3.808-15.82,4.356,13.262,6.263,23.346,5.846,37.246-.865,28.372,18.47,31.595,21.107,27.793-2.93-26.953,0-46,0-46S645.387,1841.543,620.185,1804.531Z" fill="#7791f4"/>
            <g id="Left_Arm-2" data-name="Left Arm">
              <path id="Path_81" data-name="Path 81" d="M535.127,1801.5l104.342-2.891s60.514-324.046,56.9-376.071c.163-42.232,3.041-71.366.769-77.532,0,0-9.538-53.541-61.23-57.258-50.13-3.594-63.418,57.141-63.418,57.141-1.491,14.024-16.484,123.665-21,150.442S535.323,1777.468,535.127,1801.5Z" fill="#7791f4"/>
            </g>
          </g>
          <path id="Body" d="M603.3,988.488c5.259-44.093,14.563-73.623,26.091-98.1,15.465-32.83,47.53-58.454,81.913-64.319,23.7-4.044,86.233-16.726,106.791-22.452,31.956-8.9,59.463-25.485,64.317-49.756s12.367-76.474,14.563-110.435h131.061c2.2,33.961,9.708,86.163,14.562,110.435s32.361,40.857,64.317,49.756c20.559,5.726,83.092,18.408,106.791,22.452,34.384,5.865,66.448,31.489,81.913,64.319,11.529,24.474,20.833,54,26.091,98.1,4.125,34.582-1.026,69.578,7.873,101.94H1131.262L872.3,1168.574l-108.815-78.146L603.3,1056.305V988.488" fill="#7791f4"/>
          <path id="Highlighter" d="M801.508,825.869c-1.866-5.938-3.4-11.724-4.58-17.089,8.745-1.98,16.19-3.774,21.165-5.16,31.956-8.9,59.463-25.485,64.317-49.756s12.367-76.474,14.563-110.435h131.061c.993,15.352,5.293,50.581,7.721,69.124-18.729,21.036-49.069,32.14-71.579,32.14-13.267,0-24.809-3.261-33.59-6.272-2.177,12.9-3.072,15.539-4.893,26.77-4.67,28.806-29.125,49.756-43.687,59.465,14.158,3.843,30.925,7.769,53.642,12.83,15.9,3.541,20.705,7.366,19.88,10.589-.66,2.58-8.547,3.667-21.34,1.257C906.276,844.073,824.078,831.367,801.508,825.869Zm211.559,27.83v-9.746a.891.891,0,0,0-.892-.891H982.812a.891.891,0,0,0-.892.891V853.7a.891.891,0,0,0,.892.891h29.363A.891.891,0,0,0,1013.067,853.7Z" fill="#1646b1"/>
          <g id="Shirt">
            <g id="Group_24" data-name="Group 24">
              <g id="Group_23" data-name="Group 23">
                <path id="Path_82" data-name="Path 82" d="M741.16,1422.56c18.79-73.39,12-150.38-15.8-220.85-19.11-48.44-22.38-97.48-16.15-111.28,20.23-55.83,67.62-193.06,74.1-282.06,14.15-4.04,30.74-7.68,46.51-11.33-3.19,20.96-12.54,80.59-12.94,113.37-1.21,98.71,62.7,145.23,145.62,144.42,82.93.81,146.84-45.71,145.63-144.42-.41-32.78-9.76-92.41-12.95-113.37,15.78,3.65,32.36,7.29,46.52,11.33,6.47,89,28.14,145.87,48.36,201.69l11.95,34.16c17.86,51.07-16.93,112.55-29.31,148.24a136.985,136.985,0,0,0-3.94,15.4,310.268,310.268,0,0,0,3.46,140.71l78.04,304.92H682.01Z" fill="#c3b6f2"/>
              </g>
            </g>
          </g>
          <path id="Path_83" data-name="Path 83" d="M752.2,937.5c1.657-31.573-24.562-27.083-26.636,5.987-1.875,29.919-10.214,84.646-22.562,131.138.045-.067.089-.14.135-.207,12.031-31.523,30.631-77.8,46.965-126.407C750.934,944.175,751.641,940.639,752.2,937.5Z" fill="#1646b1"/>
          <path id="Path_84" data-name="Path 84" d="M1172.625,937.008c-1.657-31.572,24.562-27.083,26.636,5.987,1.882,30.025,10.272,85.032,22.693,131.628-12.023-31.536-30.777-78.138-47.231-127.1C1173.888,943.685,1173.181,940.149,1172.625,937.008Z" fill="#1646b1"/>
          <path id="Nose" d="M964.176,580.251c5.8,0,8.152-2.348,11.413-4.635s11.086-6.235,13.586-7.944a4.708,4.708,0,0,0-.683-8.277,22.591,22.591,0,0,0-7.891-1.955c-3.177-.3-12.665,2.528-16.425,2.528s-10.266-2.55-16.425-2.528a17.816,17.816,0,0,0-7.891,1.955,4.709,4.709,0,0,0-.684,8.277c2.5,1.709,10.326,5.657,13.587,7.944S958.379,580.251,964.176,580.251Z" fill="#334c9b"/>
          <g id="Face">
            <path id="Path_85" data-name="Path 85" d="M1009.328,709.99a397.648,397.648,0,0,0,34.325-37.282c13.417-17.051,30.924-54.51,33.37-74.269,2.361-19.072,7.957-88.65,9.693-111.778,1.406-18.74,1.791-31.123,2-42.809H839.633c.211,11.686.6,24.069,2,42.809,1.736,23.128,7.332,92.706,9.693,111.778,2.446,19.759,19.953,57.218,33.37,74.269a397.657,397.657,0,0,0,34.325,37.282,201.145,201.145,0,0,0,19,15.994q-1.8-.7-3.532-1.475a73.243,73.243,0,0,0,59.36,0q-1.731.773-3.531,1.475A201.145,201.145,0,0,0,1009.328,709.99Z" fill="#7791f4"/>
            <path id="Path_86" data-name="Path 86" d="M919.023,709.99A397.657,397.657,0,0,1,884.7,672.708c-13.417-17.051-30.924-54.51-33.37-74.269-2.361-19.072-7.957-88.65-9.693-111.778-1.406-18.74-1.791-31.123-2-42.809H806.575c.049.663.1,1.335.148,2.021q.127,1.748.263,3.589.067.92.137,1.862c.322,4.395.672,9.139,1.042,14.123.265,3.56.54,7.242.824,11.008q.255,3.389.519,6.858.176,2.312.354,4.647.269,3.5.543,7.044t.554,7.087q.186,2.364.373,4.723t.376,4.7q.188,2.346.377,4.671t.379,4.621q.189,2.3.378,4.557t.377,4.478c.5,5.91,1,11.568,1.483,16.813q.181,1.966.36,3.853c.417,4.4.821,8.45,1.207,12.045q.447,4.164.934,8.111t1.024,7.692c.715,4.995,1.5,9.726,2.369,14.226q.652,3.375,1.371,6.579c5.279,23.515,13.422,40.484,27.335,56.078,17.732,19.873,52.775,46.946,64.442,56.355q1.18.951,2.438,1.91l.162.121q1.2.909,2.462,1.813l.2.143q1.282.91,2.631,1.808l.137.091a88.555,88.555,0,0,0,12.684,7.01l.035.016q1.731.773,3.532,1.475A201.145,201.145,0,0,1,919.023,709.99Z" fill="#3ff3fc"/>
            <path id="Path_87" data-name="Path 87" d="M1088.718,443.852c-.211,11.686-.6,24.069-2,42.809-1.736,23.128-7.332,92.706-9.693,111.778-2.446,19.759-19.953,57.218-33.37,74.269a397.648,397.648,0,0,1-34.325,37.282,201.145,201.145,0,0,1-19,15.994q1.8-.7,3.531-1.475l.036-.016a88.579,88.579,0,0,0,12.682-7.009l.14-.093q1.348-.9,2.628-1.806l.205-.145q1.263-.9,2.46-1.81c.054-.042.11-.083.164-.124q1.256-.957,2.437-1.909c4.01-3.234,10.783-8.556,18.665-14.955q2.149-1.745,4.4-3.591t4.56-3.768q2.31-1.923,4.661-3.909t4.7-4.014c2.351-2.027,4.7-4.079,7-6.136,3.072-2.744,6.073-5.5,8.922-8.208,4.274-4.069,8.207-8.048,11.532-11.774q.948-1.063,1.862-2.136,1.826-2.145,3.515-4.333.844-1.095,1.657-2.2,1.625-2.218,3.121-4.5t2.873-4.636q1.378-2.355,2.64-4.8,1.9-3.664,3.551-7.549,1.106-2.595,2.113-5.3,1.514-4.065,2.822-8.417t2.443-9.041q.756-3.128,1.44-6.415c.914-4.385,1.738-8.995,2.488-13.86s1.429-9.984,2.051-15.391q.234-2.026.457-4.109c1.819-16.949,4.048-44.032,6.046-69.907.242-3.136.481-6.255.715-9.336q.264-3.465.519-6.858.085-1.129.169-2.249.168-2.238.332-4.431t.323-4.328c.37-4.984.72-9.728,1.042-14.123q.07-.942.137-1.862.135-1.841.263-3.589c.05-.686.1-1.358.148-2.021Z" fill="#f467c5"/>
          </g>
          <g id="Lips">
            <g id="Lips-2" data-name="Lips">
              <path id="Path_88" data-name="Path 88" d="M964.175,647.427c5.4.188,19.539,1.882,27.631,1.129s24.745-15.243,29.92-19.759c-3.814-.4-6.367-2.259-9.628-4.517s-14.866-13.674-20.292-17.03c-5.15-3.186-10.067-4.673-14.646-3.795-5.146.987-9.273,1.638-12.985,2.132-3.711-.494-7.838-1.145-12.984-2.132-4.579-.878-9.5.609-14.646,3.795-5.426,3.356-17.03,14.772-20.292,17.03s-5.815,4.12-9.628,4.517c5.175,4.516,21.828,19.006,29.92,19.759S958.781,647.615,964.175,647.427Z" fill="#263e7a"/>
              <path id="Path_89" data-name="Path 89" d="M964.175,642.407c-4.39.376-14.991.659-19.789.847a23.4,23.4,0,0,1-11.573-2.117c-3.011-1.506-11.393-8.262-15.1-11.385,3.951-2.917,22.941-17.141,26.454-19.273a17.65,17.65,0,0,1,9.628-2.039c2.071.176,7.2.721,10.381,1.129,3.184-.408,8.311-.953,10.382-1.129a17.65,17.65,0,0,1,9.628,2.039c3.512,2.132,22.5,16.356,26.454,19.273-3.708,3.123-12.09,9.879-15.1,11.385a23.4,23.4,0,0,1-11.573,2.117C979.167,643.066,968.566,642.783,964.175,642.407Z" fill="#334c9b"/>
              <g id="Group_25" data-name="Group 25">
                <path id="Path_90" data-name="Path 90" d="M999.3,631.267a1.835,1.835,0,0,1-.747-.159c-4.484-1.991-7.744-3.1-12.126-3.29-4.411-.186-15.614-.186-22.2,0h-.105c-6.585-.187-17.789-.187-22.2,0-4.382.185-7.642,1.3-12.126,3.29a1.843,1.843,0,1,1-1.5-3.368c4.9-2.176,8.5-3.394,13.467-3.6,4.462-.189,15.75-.19,22.407,0,6.658-.187,17.945-.186,22.408,0,4.97.21,8.568,1.428,13.467,3.6a1.843,1.843,0,0,1-.749,3.527Z" fill="#193368"/>
              </g>
              <path id="Path_91" data-name="Path 91" d="M1012.1,624.28c-3.262-2.258-14.866-13.674-20.292-17.03-5.15-3.186-10.067-4.673-14.646-3.795-5.146.987-9.273,1.638-12.984,2.132v3.982c3.183-.408,8.31-.953,10.381-1.129a17.658,17.658,0,0,1,9.628,2.038c3.512,2.133,22.5,16.357,26.454,19.274-3.708,3.123-12.09,9.879-15.1,11.385a23.4,23.4,0,0,1-11.573,2.117c-4.8-.188-15.4-.471-19.789-.847v5.02c5.394.188,19.538,1.882,27.63,1.129s24.745-15.243,29.92-19.759C1017.912,628.4,1015.359,626.538,1012.1,624.28Z" fill="#ce2caf"/>
            </g>
            <path id="Path_92" data-name="Path 92" d="M983.232,667.037c-1.137-4.633-10.839-9.529-19.056-9.529s-17.92,4.9-19.056,9.529Z" fill="#334c9b"/>
          </g>
          <g id="Hairs">
            <path id="Path_93" data-name="Path 93" d="M958.455,288.4c-10.643,16.746-22.936,62.163-31.25,88.755,1.039-30.359,9.566-70.506,15.161-88.755-24.145,28.221-48.659,115.54-62.235,159.954,1.128-42.527,27.572-125.32,52.086-172.366-36.21,36.13-70.57,119.3-86.792,172.366,1.511-56.834,27.447-120.426,60.635-162.2-42.372,25.48-77.1,98.094-89.106,160.883-4.341-66.054,44.508-152.473,86.1-177.445-54.761,20.328-88.178,87.3-100.619,127.576-6.117,19.783-14.622,65.73-19.523,91.7-5,30.057,1.37,110.41,13.111,152.378-16.6-31.929-22.118-75.437-23.754-102.354-11.313,55.323-29.245,135.285-32.068,169.16-1.761,21.087,4.71,45.542,16.59,61.345-32.053,0-68.071-11.661-85.037-32.733-8.255-17.438-12.6-33.2-10.422-49.552V687.1a70.61,70.61,0,0,1,5.933-20.062c.214-.487.42-.973.634-1.46,27.145-62.185,79.26-177.746,94.862-267.652a281.523,281.523,0,0,1,8.911-37.508c16.45-52.773,50.751-99.03,108.674-120.684.921-.339,1.85-.678,2.779-1.01.073-.022.139-.052.206-.074,7.96-2.779,15.92-5.167,23.961-7.149.685-.17,1.378-.332,2.063-.494q2.466-.587,4.946-1.12l1.908-.4c.671-.148,1.342-.281,2.013-.406,1.894-.383,3.8-.737,5.712-1.061.648-.111,1.3-.221,1.945-.324,1.3-.214,2.609-.421,3.921-.612,1.592-.236,3.2-.45,4.806-.656.715-.089,1.429-.177,2.152-.258a243.5,243.5,0,0,1,25.736-1.607C962.56,239.682,962.4,272.82,958.455,288.4Z" fill="#1955bf"/>
            <path id="Path_94" data-name="Path 94" d="M1263.133,718.344c-.052.221-.111.434-.17.656a101.933,101.933,0,0,1-5.122,14.829,1.429,1.429,0,0,1-.074.184c-.214.5-.427.995-.656,1.489-.162.391-.332.774-.509,1.157l-.007.008c-16.966,21.064-52.984,32.725-85.038,32.725,11.881-15.8,18.36-40.258,16.6-61.345-2.83-33.875-20.762-113.837-32.075-169.16-1.636,26.917-7.149,70.425-23.747,102.354,11.734-41.968,18.1-122.321,13.112-152.378-4.909-25.966-13.407-71.913-19.524-91.7-12.448-40.272-45.312-101.794-93.97-123.809,36.187,24.109,83.784,107.624,79.451,173.678-12.007-62.789-45.932-135.543-88.3-161.023,33.195,41.776,58.313,105.508,59.824,162.342-16.222-53.067-48.26-133.6-84.47-169.727,24.521,47.045,48.636,127.2,49.771,169.727-13.576-44.414-38.1-131.733-62.234-159.954,4.149,17.5,8.616,39.742,12.072,61.507-6.9-15.729-15.042-36.16-22.354-50.871-.449,29.268-1.754,83.035-3.1,100.651-1.9-20.21-4.355-104.418-4.842-124.134-1.872-16.79-1.953-39.285-1.9-50.989a244.533,244.533,0,0,1,31.559,2.366c1.024.147,2.049.295,3.073.457.715.1,1.423.221,2.13.339.5.081,1,.162,1.511.251.28.044.568.1.855.154,1.054.177,2.115.362,3.17.568q1.952.368,3.887.77c.843.172,1.684.353,2.525.534l1.042.229q4.168.921,8.3,1.989,1.644.425,3.275.863c.87.229,1.74.472,2.609.723q1.14.319,2.278.663,2.31.675,4.606,1.4,1.427.454,2.853.922,11.773,3.881,23.341,8.933a1.43,1.43,0,0,1,.192.081q1.525.673,3.044,1.371,3.028,1.382,6.028,2.852c1,.487,2,.98,2.993,1.482q4.321,2.188,8.571,4.54c.332.184.664.368.995.56.457.251.922.516,1.379.774.8.457,1.6.921,2.4,1.386.4.228.788.464,1.179.7.538.317,1.076.634,1.607.958q2.011,1.2,3.987,2.454c1.01.634,2.012,1.275,3.015,1.931.029.022.066.045.11.074.405.265.811.531,1.216.8.133.089.273.177.406.273.4.266.8.531,1.2.8,1.1.744,2.211,1.5,3.309,2.27.671.464,1.349.943,2.012,1.422.907.649,1.806,1.3,2.7,1.961.634.464,1.26.928,1.879,1.407,34.773,26.586,54.009,75.187,61.77,110.838,14.873,68.324,51.179,186.009,82.266,267.313C1266.081,680.636,1267.621,700.2,1263.133,718.344Z" fill="#8c076d"/>
          </g>
        </g>
        <g id="VR">
          <path id="Path_95" data-name="Path 95" d="M743.248,503.56l27.085,12.414V382.4l-27.085,12.414A19.236,19.236,0,0,0,732.027,412.3v73.772A19.234,19.234,0,0,0,743.248,503.56Z" fill="#4f37a0"/>
          <path id="Path_96" data-name="Path 96" d="M1188.456,503.56l-27.086,12.414V382.4l27.086,12.414a19.235,19.235,0,0,1,11.22,17.486v73.772A19.233,19.233,0,0,1,1188.456,503.56Z" fill="#4f37a0"/>
          <path id="Path_97" data-name="Path 97" d="M965.852,538.6c16.8,0,26.438,13.086,49.467,19.556,20.118,5.652,64.142,3.953,84.733,0,36.972-7.1,68.166-30.52,68.166-68.168v-77.96a68.167,68.167,0,0,0-68.166-68.168h-268.4a68.166,68.166,0,0,0-68.165,68.168v77.96c0,37.648,31.193,61.07,68.165,68.168,20.592,3.953,64.615,5.652,84.733,0C939.413,551.686,950.142,538.6,965.852,538.6Z" fill="#d2ccff"/>
          <rect id="Rectangle_16" data-name="Rectangle 16" width="155.599" height="349.111" rx="12.035" transform="translate(1140.407 363.651) rotate(90)" fill="#5965fc"/>
          <path id="Path_98" data-name="Path 98" d="M779.107,471.487l12.189,8.236V403.615l-12.189,8.236Z" fill="#4f37a0"/>
          <path id="Path_99" data-name="Path 99" d="M1152.6,470.825l-12.189,8.236V402.953l12.189,8.236Z" fill="#4f37a0"/>
          <path id="Path_100" data-name="Path 100" d="M791.3,479.287a39.962,39.962,0,0,0,39.962,39.963h269.188a39.775,39.775,0,0,0,20.874-5.883c-85.925-48.4-219.174-106.639-320.352-135.8a39.8,39.8,0,0,0-9.672,26.052Z" fill="#4d36ba"/>
          <path id="Path_101" data-name="Path 101" d="M1188.552,394.865V503.512a19.232,19.232,0,0,0,11.124-17.437V412.3A19.233,19.233,0,0,0,1188.552,394.865Z" fill="#ed77c0"/>
          <path id="Path_102" data-name="Path 102" d="M732.027,412.3v0Z" fill="#4f37a0"/>
          <path id="Path_103" data-name="Path 103" d="M732.027,412.3v73.775a19.234,19.234,0,0,0,11.125,17.436V394.865A19.234,19.234,0,0,0,732.027,412.3Z" fill="#3ff3fc"/>
          <path id="Path_104" data-name="Path 104" d="M831.651,558.156c20.592,3.953,64.615,5.652,84.733,0,23.029-6.47,33.758-19.556,49.468-19.556,16.8,0,26.438,13.086,49.467,19.556,20.118,5.652,64.142,3.953,84.733,0,21.707-4.168,41.411-13.969,53.991-28.965H777.661C790.24,544.187,809.945,553.988,831.651,558.156Z" fill="#7563c1"/>
        </g>
      </g>
    </g>
  </g>
</svg>
